<svg width="282" height="282" viewBox="0 0 282 282" fill="none" xmlns="http://www.w3.org/2000/svg">
<path d="M122.529 76.4746C143.377 76.4746 160.568 59.1943 160.568 38.2373C160.568 17.2803 143.743 0 122.529 0C101.681 0 84.4903 17.2803 84.4903 38.2373C84.4903 59.1943 101.681 76.4746 122.529 76.4746ZM122.529 7.35332C139.354 7.35332 153.253 21.3246 153.253 38.2373C153.253 55.1499 139.354 69.1212 122.529 69.1212C105.704 69.1212 91.8054 55.1499 91.8054 38.2373C91.8054 21.3246 105.704 7.35332 122.529 7.35332Z" fill="black"/>
<path d="M88.1479 168.391C102.047 168.391 113.019 156.993 113.019 143.39C113.019 129.419 101.681 118.389 88.1479 118.389C74.6148 118.389 63.2763 129.786 63.2763 143.39C62.9105 156.993 74.249 168.391 88.1479 168.391ZM88.1479 125.374C98.0233 125.374 105.704 133.463 105.704 143.022C105.704 152.581 97.6576 160.67 88.1479 160.67C78.6381 160.67 70.5914 152.581 70.5914 143.022C70.5914 133.463 78.2724 125.374 88.1479 125.374Z" fill="black"/>
<path d="M80.1012 146.699C82.2957 146.699 83.7587 145.228 83.7587 143.022C83.7587 140.816 85.5875 138.61 88.1479 138.61C90.3424 138.61 91.8054 137.139 91.8054 134.934C91.8054 132.728 90.3424 131.257 88.1479 131.257C81.93 131.257 76.4436 136.404 76.4436 143.022C76.4436 145.228 78.2724 146.699 80.1012 146.699Z" fill="black"/>
<path d="M257.128 183.465C243.23 183.465 232.257 194.863 232.257 208.467C232.257 222.438 243.595 233.468 257.128 233.468C270.661 233.468 282 222.07 282 208.467C282 194.495 270.661 183.465 257.128 183.465ZM257.128 226.482C247.253 226.482 239.572 218.394 239.572 208.834C239.572 199.275 247.619 191.186 257.128 191.186C266.638 191.186 274.685 199.275 274.685 208.834C274.685 218.394 266.638 226.482 257.128 226.482Z" fill="black"/>
<path d="M257.128 197.069C250.91 197.069 245.424 202.216 245.424 208.834C245.424 211.04 246.887 212.511 249.082 212.511C251.276 212.511 252.739 211.04 252.739 208.834C252.739 206.628 254.568 204.422 257.128 204.422C259.323 204.422 260.786 202.952 260.786 200.746C260.786 198.54 258.957 197.069 257.128 197.069Z" fill="black"/>
<path d="M254.568 76.4746C268.467 76.4746 279.44 65.0769 279.44 51.4733C279.44 37.502 268.101 26.472 254.568 26.472C240.669 26.472 229.696 37.8696 229.696 51.4733C229.696 65.0769 240.669 76.4746 254.568 76.4746ZM254.568 33.4576C264.444 33.4576 272.124 41.5463 272.124 51.1056C272.124 60.6649 264.078 68.7536 254.568 68.7536C244.693 68.7536 237.012 60.6649 237.012 51.1056C237.012 41.5463 244.693 33.4576 254.568 33.4576Z" fill="black"/>
<path d="M246.887 55.1499C249.082 55.1499 250.545 53.6793 250.545 51.4733C250.545 49.2673 252.374 47.0613 254.934 47.0613C257.128 47.0613 258.591 45.5906 258.591 43.3846C258.591 41.1786 257.128 39.708 254.934 39.708C248.716 39.708 243.23 44.8553 243.23 51.4733C243.23 53.3116 244.693 55.1499 246.887 55.1499Z" fill="black"/>
<path d="M103.875 37.502C106.07 37.502 107.533 36.0313 107.533 33.8253C107.533 27.9427 112.288 23.163 118.14 23.163C120.335 23.163 121.798 21.6923 121.798 19.4863C121.798 17.2803 120.335 15.8097 118.14 15.8097C108.265 15.8097 100.218 23.8983 100.218 33.8253C100.218 35.6636 102.047 37.502 103.875 37.502Z" fill="black"/>
<path d="M202.996 174.274C230.428 174.274 252.739 151.846 252.739 124.271C252.739 96.6962 230.428 74.2686 202.996 74.2686C175.564 74.2686 153.253 96.6962 153.253 124.271C153.253 151.846 175.564 174.274 202.996 174.274ZM202.996 81.9896C226.405 81.9896 245.424 101.108 245.424 124.639C245.424 148.169 226.405 167.288 202.996 167.288C179.587 167.288 160.568 148.169 160.568 124.639C160.568 101.108 179.587 81.9896 202.996 81.9896Z" fill="black"/>
<path d="M173.37 126.11C175.564 126.11 177.027 124.639 177.027 122.433C177.027 108.094 188.366 96.6962 202.63 96.6962C204.825 96.6962 206.288 95.2256 206.288 93.0196C206.288 90.8136 204.825 89.3429 202.63 89.3429C184.342 89.3429 169.712 104.05 169.712 122.433C169.712 124.271 171.541 126.11 173.37 126.11Z" fill="black"/>
<path d="M136.062 252.587C152.887 252.587 166.42 238.983 166.42 222.07C166.42 205.158 152.887 191.554 136.062 191.554C119.237 191.554 105.704 205.158 105.704 222.07C105.704 238.983 119.237 252.587 136.062 252.587ZM136.062 199.275C148.864 199.275 159.105 209.57 159.105 222.438C159.105 235.306 148.864 245.601 136.062 245.601C123.261 245.601 113.019 235.306 113.019 222.438C113.019 209.57 123.261 199.275 136.062 199.275Z" fill="black"/>
<path d="M124.724 223.541C126.918 223.541 128.381 222.07 128.381 219.864C128.381 215.82 131.673 212.511 135.696 212.511C137.891 212.511 139.354 211.04 139.354 208.834C139.354 206.628 137.891 205.158 135.696 205.158C127.65 205.158 121.066 211.776 121.066 219.864C121.066 222.07 122.895 223.541 124.724 223.541Z" fill="black"/>
<path d="M29.2607 55.8853C42.7938 55.8853 53.7665 44.8553 53.7665 31.2516C53.7665 17.648 42.7938 6.61799 29.2607 6.61799C15.7276 6.61799 4.75487 17.648 4.75487 31.2516C4.75487 44.8553 15.7276 55.8853 29.2607 55.8853ZM29.2607 13.9713C38.7704 13.9713 46.4514 21.6923 46.4514 31.2516C46.4514 40.8109 38.7704 48.5319 29.2607 48.5319C19.751 48.5319 12.07 40.8109 12.07 31.2516C12.07 21.6923 19.751 13.9713 29.2607 13.9713Z" fill="black"/>
<path d="M66.5681 204.055C74.9805 204.055 82.2957 197.069 82.2957 188.245C82.2957 179.421 75.3463 172.435 66.5681 172.435C57.7899 172.435 50.8405 179.421 50.8405 188.245C50.8405 197.069 58.1556 204.055 66.5681 204.055ZM66.5681 180.156C70.9572 180.156 74.9806 183.833 74.9806 188.613C74.9806 193.392 71.323 197.069 66.5681 197.069C61.8132 197.069 58.1556 193.392 58.1556 188.613C58.1556 183.833 62.179 180.156 66.5681 180.156Z" fill="black"/>
<path d="M15.3619 254.057C15.3619 261.778 21.5798 268.029 29.2607 268.029C36.9416 268.029 43.1595 261.778 43.1595 254.057C43.1595 246.336 36.9416 240.086 29.2607 240.086C21.5798 240.086 15.3619 246.336 15.3619 254.057ZM35.8443 254.057C35.8443 257.734 32.9183 260.675 29.2607 260.675C25.6031 260.675 22.677 257.734 22.677 254.057C22.677 250.381 25.6031 247.439 29.2607 247.439C32.9183 247.439 35.8443 250.381 35.8443 254.057Z" fill="black"/>
<path d="M27.7977 114.344C27.7977 106.623 21.5798 100.373 13.8988 100.373C6.2179 100.373 0 106.623 0 114.344C0 122.065 6.2179 128.316 13.8988 128.316C21.5798 128.316 27.7977 122.065 27.7977 114.344ZM7.31518 114.344C7.31518 110.668 10.2412 107.726 13.8988 107.726C17.5564 107.726 20.4825 110.668 20.4825 114.344C20.4825 118.021 17.5564 120.962 13.8988 120.962C10.2412 120.962 7.31518 118.021 7.31518 114.344Z" fill="black"/>
<path d="M215.798 266.19C215.798 257.366 208.848 250.381 200.07 250.381C191.292 250.381 184.342 257.366 184.342 266.19C184.342 275.014 191.292 282 200.07 282C208.848 282 215.798 274.647 215.798 266.19ZM191.658 266.19C191.658 261.778 195.315 257.734 200.07 257.734C204.825 257.734 208.482 261.411 208.482 266.19C208.482 270.97 204.825 274.647 200.07 274.647C195.315 274.647 191.658 270.602 191.658 266.19Z" fill="black"/>
<path d="M23.0428 33.4576C25.2374 33.4576 26.7004 31.987 26.7004 29.781C26.7004 28.3103 27.7977 27.2073 29.2607 27.2073C31.4553 27.2073 32.9183 25.7366 32.9183 23.5306C32.9183 21.3246 31.4553 19.854 29.2607 19.854C23.7743 19.854 19.3852 24.266 19.3852 29.781C19.3852 31.6193 21.214 33.4576 23.0428 33.4576Z" fill="black"/>
</svg>
