<svg width="150" height="144" viewBox="0 0 150 144" fill="none" xmlns="http://www.w3.org/2000/svg">
<path d="M27.2727 0V6.26087H0V144H150V6.26087H122.727V0H109.091V6.26087H40.9091V0H27.2727ZM13.6364 18.7826H27.2727V25.0435H40.9091V18.7826H109.091V25.0435H122.727V18.7826H136.364V31.3043H13.6364V18.7826ZM13.6364 43.8261H136.364V131.478H13.6364V43.8261ZM54.5455 56.3478V68.8696H68.1818V56.3478H54.5455ZM81.8182 56.3478V68.8696H95.4545V56.3478H81.8182ZM109.091 56.3478V68.8696H122.727V56.3478H109.091ZM27.2727 81.3913V93.913H40.9091V81.3913H27.2727ZM54.5455 81.3913V93.913H68.1818V81.3913H54.5455ZM81.8182 81.3913V93.913H95.4545V81.3913H81.8182ZM109.091 81.3913V93.913H122.727V81.3913H109.091ZM27.2727 106.435V118.957H40.9091V106.435H27.2727ZM54.5455 106.435V118.957H68.1818V106.435H54.5455ZM81.8182 106.435V118.957H95.4545V106.435H81.8182Z" fill="black"/>
</svg>
