<svg width="400" height="429" viewBox="0 0 400 429" fill="none" xmlns="http://www.w3.org/2000/svg">
<rect width="400" height="429" fill="#4F4F4F"/>
<path d="M18.9393 53.9393C18.3536 54.5251 18.3536 55.4749 18.9393 56.0607L28.4853 65.6066C29.0711 66.1924 30.0208 66.1924 30.6066 65.6066C31.1924 65.0208 31.1924 64.0711 30.6066 63.4853L22.1213 55L30.6066 46.5147C31.1924 45.9289 31.1924 44.9792 30.6066 44.3934C30.0208 43.8076 29.0711 43.8076 28.4853 44.3934L18.9393 53.9393ZM22 55V53.5H20V55V56.5H22V55Z" fill="#1E1E1E"/>
<path d="M378.061 53.9393C378.646 54.5251 378.646 55.4749 378.061 56.0607L368.515 65.6066C367.929 66.1924 366.979 66.1924 366.393 65.6066C365.808 65.0208 365.808 64.0711 366.393 63.4853L374.879 55L366.393 46.5147C365.808 45.9289 365.808 44.9792 366.393 44.3934C366.979 43.8076 367.929 43.8076 368.515 44.3934L378.061 53.9393ZM375 55V53.5H377V55V56.5H375V55Z" fill="#1E1E1E"/>
<path d="M178.57 64.18V61.93H180.07C181 61.93 181.745 61.63 182.305 61.03C182.865 60.42 183.145 59.62 183.145 58.63V41.5H185.395V58.63C185.395 60.29 184.91 61.63 183.94 62.65C182.97 63.67 181.68 64.18 180.07 64.18H178.57ZM194.309 64.36C193.449 64.36 192.679 64.165 191.999 63.775C191.319 63.385 190.779 62.805 190.379 62.035C189.979 61.255 189.779 60.295 189.779 59.155V47.725H191.954V59.155C191.954 60.065 192.214 60.8 192.734 61.36C193.254 61.91 193.939 62.185 194.789 62.185C195.659 62.185 196.354 61.91 196.874 61.36C197.394 60.8 197.654 60.065 197.654 59.155V47.725H199.829V64H197.654V61.84L198.029 62.305C197.659 62.955 197.159 63.46 196.529 63.82C195.899 64.18 195.159 64.36 194.309 64.36ZM204.095 64V41.5H206.27V64H204.095ZM212.01 69.4L213.48 64.33L208.74 47.725H211.11L214.965 61.465H214.44L218.235 47.725H220.635L214.35 69.4H212.01Z" fill="white"/>
<rect opacity="0.4" x="21" y="137" width="45" height="45" rx="6" fill="#D9D9D9"/>
<path opacity="0.4" d="M30.7282 170V168.11C30.7282 166.99 30.9282 165.985 31.3282 165.095C31.7382 164.195 32.2632 163.375 32.9032 162.635C33.5432 161.885 34.2182 161.19 34.9282 160.55C35.6382 159.9 36.3132 159.265 36.9532 158.645C37.5932 158.025 38.1132 157.39 38.5132 156.74C38.9232 156.09 39.1282 155.39 39.1282 154.64V152.57C39.1282 151.58 38.8482 150.785 38.2882 150.185C37.7282 149.575 36.9832 149.27 36.0532 149.27C35.1232 149.27 34.3782 149.575 33.8182 150.185C33.2582 150.785 32.9782 151.58 32.9782 152.57V153.32H30.7282V152.57C30.7282 150.9 31.2132 149.56 32.1832 148.55C33.1632 147.53 34.4532 147.02 36.0532 147.02C37.6632 147.02 38.9532 147.53 39.9232 148.55C40.8932 149.57 41.3782 150.91 41.3782 152.57V154.64C41.3782 155.52 41.1782 156.345 40.7782 157.115C40.3782 157.875 39.8632 158.595 39.2332 159.275C38.6032 159.955 37.9332 160.62 37.2232 161.27C36.5232 161.91 35.8582 162.56 35.2282 163.22C34.5982 163.87 34.0832 164.545 33.6832 165.245C33.2832 165.935 33.0832 166.68 33.0832 167.48V168.77L32.0632 167.75H41.3782V170H30.7282ZM50.0569 170.48C48.4569 170.48 47.1669 169.97 46.1869 168.95C45.2169 167.93 44.7319 166.59 44.7319 164.93V164.18H46.9819V164.93C46.9819 165.92 47.2619 166.72 47.8219 167.33C48.3819 167.93 49.1269 168.23 50.0569 168.23C50.9869 168.23 51.7319 167.93 52.2919 167.33C52.8519 166.72 53.1319 165.92 53.1319 164.93V160.085L53.5369 160.595C53.1669 161.205 52.6819 161.68 52.0819 162.02C51.4919 162.35 50.7719 162.515 49.9219 162.515C48.9119 162.515 48.0169 162.285 47.2369 161.825C46.4569 161.355 45.8419 160.705 45.3919 159.875C44.9519 159.045 44.7319 158.075 44.7319 156.965V152.57C44.7319 150.9 45.2169 149.56 46.1869 148.55C47.1669 147.53 48.4569 147.02 50.0569 147.02C51.6669 147.02 52.9569 147.53 53.9269 148.55C54.8969 149.56 55.3819 150.9 55.3819 152.57V164.93C55.3819 166.59 54.8969 167.93 53.9269 168.95C52.9569 169.97 51.6669 170.48 50.0569 170.48ZM50.1319 160.265C51.0719 160.265 51.8069 159.97 52.3369 159.38C52.8669 158.78 53.1319 157.985 53.1319 156.995V152.57C53.1319 151.58 52.8519 150.785 52.2919 150.185C51.7319 149.575 50.9869 149.27 50.0569 149.27C49.1269 149.27 48.3819 149.575 47.8219 150.185C47.2619 150.785 46.9819 151.58 46.9819 152.57V156.965C46.9819 157.955 47.2669 158.755 47.8369 159.365C48.4069 159.965 49.1719 160.265 50.1319 160.265Z" fill="black"/>
<rect opacity="0.4" x="73" y="137" width="45" height="45" rx="6" fill="#D9D9D9"/>
<path opacity="0.4" d="M87.613 170.48C86.013 170.48 84.723 169.97 83.743 168.95C82.773 167.93 82.288 166.59 82.288 164.93V164.18H84.538V164.93C84.538 165.92 84.818 166.72 85.378 167.33C85.938 167.93 86.683 168.23 87.613 168.23C88.543 168.23 89.288 167.93 89.848 167.33C90.408 166.72 90.688 165.92 90.688 164.93V162.92C90.688 161.93 90.408 161.135 89.848 160.535C89.288 159.925 88.543 159.62 87.613 159.62H85.858V157.37H87.613C88.543 157.37 89.288 157.07 89.848 156.47C90.408 155.86 90.688 155.06 90.688 154.07V152.57C90.688 151.58 90.408 150.785 89.848 150.185C89.288 149.575 88.543 149.27 87.613 149.27C86.683 149.27 85.938 149.575 85.378 150.185C84.818 150.785 84.538 151.58 84.538 152.57V153.32H82.288V152.57C82.288 150.9 82.773 149.56 83.743 148.55C84.723 147.53 86.013 147.02 87.613 147.02C89.223 147.02 90.513 147.53 91.483 148.55C92.453 149.56 92.938 150.9 92.938 152.57V154.07C92.938 155.16 92.718 156.12 92.278 156.95C91.848 157.77 91.243 158.405 90.463 158.855L90.478 158.09C91.248 158.55 91.848 159.195 92.278 160.025C92.718 160.855 92.938 161.82 92.938 162.92V164.93C92.938 166.59 92.453 167.93 91.483 168.95C90.513 169.97 89.223 170.48 87.613 170.48ZM102.458 170.48C100.868 170.48 99.5834 169.97 98.6034 168.95C97.6334 167.93 97.1484 166.59 97.1484 164.93V152.57C97.1484 150.9 97.6334 149.56 98.6034 148.55C99.5834 147.53 100.868 147.02 102.458 147.02C104.078 147.02 105.373 147.53 106.343 148.55C107.313 149.56 107.798 150.9 107.798 152.57V164.93C107.798 166.59 107.313 167.93 106.343 168.95C105.373 169.97 104.078 170.48 102.458 170.48ZM102.473 168.23C103.403 168.23 104.148 167.93 104.708 167.33C105.268 166.72 105.548 165.92 105.548 164.93V152.57C105.548 151.58 105.268 150.785 104.708 150.185C104.148 149.575 103.403 149.27 102.473 149.27C101.543 149.27 100.798 149.575 100.238 150.185C99.6784 150.785 99.3984 151.58 99.3984 152.57V164.93C99.3984 165.92 99.6784 166.72 100.238 167.33C100.798 167.93 101.543 168.23 102.473 168.23ZM104.333 149.27H105.803L100.613 168.23H99.1434L104.333 149.27Z" fill="black"/>
<rect x="125" y="137" width="45" height="45" rx="6" fill="#D9D9D9"/>
<path d="M146.941 170V152.33H143.881V150.08H144.421C145.221 150.08 145.841 149.88 146.281 149.48C146.721 149.08 146.941 148.53 146.941 147.83V147.5H149.191V170H146.941Z" fill="#999999"/>
<rect x="177" y="137" width="45" height="45" rx="6" fill="#D9D9D9"/>
<path d="M194.126 170V168.11C194.126 166.99 194.326 165.985 194.726 165.095C195.136 164.195 195.661 163.375 196.301 162.635C196.941 161.885 197.616 161.19 198.326 160.55C199.036 159.9 199.711 159.265 200.351 158.645C200.991 158.025 201.511 157.39 201.911 156.74C202.321 156.09 202.526 155.39 202.526 154.64V152.57C202.526 151.58 202.246 150.785 201.686 150.185C201.126 149.575 200.381 149.27 199.451 149.27C198.521 149.27 197.776 149.575 197.216 150.185C196.656 150.785 196.376 151.58 196.376 152.57V153.32H194.126V152.57C194.126 150.9 194.611 149.56 195.581 148.55C196.561 147.53 197.851 147.02 199.451 147.02C201.061 147.02 202.351 147.53 203.321 148.55C204.291 149.57 204.776 150.91 204.776 152.57V154.64C204.776 155.52 204.576 156.345 204.176 157.115C203.776 157.875 203.261 158.595 202.631 159.275C202.001 159.955 201.331 160.62 200.621 161.27C199.921 161.91 199.256 162.56 198.626 163.22C197.996 163.87 197.481 164.545 197.081 165.245C196.681 165.935 196.481 166.68 196.481 167.48V168.77L195.461 167.75H204.776V170H194.126Z" fill="#999999"/>
<rect x="229" y="137" width="45" height="45" rx="6" fill="#D9D9D9"/>
<path d="M251.142 170.48C249.542 170.48 248.252 169.97 247.272 168.95C246.302 167.93 245.817 166.59 245.817 164.93V164.18H248.067V164.93C248.067 165.92 248.347 166.72 248.907 167.33C249.467 167.93 250.212 168.23 251.142 168.23C252.072 168.23 252.817 167.93 253.377 167.33C253.937 166.72 254.217 165.92 254.217 164.93V162.92C254.217 161.93 253.937 161.135 253.377 160.535C252.817 159.925 252.072 159.62 251.142 159.62H249.387V157.37H251.142C252.072 157.37 252.817 157.07 253.377 156.47C253.937 155.86 254.217 155.06 254.217 154.07V152.57C254.217 151.58 253.937 150.785 253.377 150.185C252.817 149.575 252.072 149.27 251.142 149.27C250.212 149.27 249.467 149.575 248.907 150.185C248.347 150.785 248.067 151.58 248.067 152.57V153.32H245.817V152.57C245.817 150.9 246.302 149.56 247.272 148.55C248.252 147.53 249.542 147.02 251.142 147.02C252.752 147.02 254.042 147.53 255.012 148.55C255.982 149.56 256.467 150.9 256.467 152.57V154.07C256.467 155.16 256.247 156.12 255.807 156.95C255.377 157.77 254.772 158.405 253.992 158.855L254.007 158.09C254.777 158.55 255.377 159.195 255.807 160.025C256.247 160.855 256.467 161.82 256.467 162.92V164.93C256.467 166.59 255.982 167.93 255.012 168.95C254.042 169.97 252.752 170.48 251.142 170.48Z" fill="#999999"/>
<rect x="281" y="137" width="45" height="45" rx="6" fill="#D9D9D9"/>
<path d="M305.472 170V165.095H297.072V163.01L305.487 147.5H307.722V162.875H309.822V165.095H307.722V170H305.472ZM298.932 163.775L298.392 162.875H305.472V151.52L298.932 163.775Z" fill="#999999"/>
<rect x="333" y="137" width="45" height="45" rx="6" fill="#D9D9D9"/>
<path d="M355.78 170.48C354.19 170.48 352.905 169.97 351.925 168.95C350.955 167.93 350.47 166.59 350.47 164.93V164.18H352.72V164.93C352.72 165.92 353 166.72 353.56 167.33C354.12 167.93 354.865 168.23 355.795 168.23C356.725 168.23 357.47 167.93 358.03 167.33C358.59 166.72 358.87 165.92 358.87 164.93V160.52C358.87 159.53 358.58 158.735 358 158.135C357.43 157.525 356.67 157.22 355.72 157.22C354.78 157.22 354.045 157.52 353.515 158.12C352.985 158.72 352.72 159.515 352.72 160.505V160.82H350.47V147.5H360.895V149.75H351.7L352.72 148.73V157.415L352.315 156.905C352.685 156.285 353.17 155.81 353.77 155.48C354.37 155.14 355.09 154.97 355.93 154.97C356.94 154.97 357.835 155.2 358.615 155.66C359.395 156.12 360.005 156.77 360.445 157.61C360.895 158.44 361.12 159.41 361.12 160.52V164.93C361.12 166.59 360.635 167.93 359.665 168.95C358.695 169.97 357.4 170.48 355.78 170.48Z" fill="#999999"/>
<rect x="21" y="189" width="45" height="45" rx="6" fill="#D9D9D9"/>
<path d="M43.6322 222.48C42.0422 222.48 40.7572 221.97 39.7772 220.95C38.8072 219.93 38.3222 218.59 38.3222 216.93V204.57C38.3222 202.9 38.8072 201.56 39.7772 200.55C40.7572 199.53 42.0422 199.02 43.6322 199.02C45.2522 199.02 46.5472 199.53 47.5172 200.55C48.4872 201.56 48.9722 202.9 48.9722 204.57V205.32H46.7222V204.57C46.7222 203.58 46.4422 202.785 45.8822 202.185C45.3222 201.575 44.5772 201.27 43.6472 201.27C42.7172 201.27 41.9722 201.575 41.4122 202.185C40.8522 202.785 40.5722 203.58 40.5722 204.57V209.415L40.1672 208.905C40.5372 208.285 41.0222 207.81 41.6222 207.48C42.2222 207.14 42.9422 206.97 43.7822 206.97C44.7922 206.97 45.6872 207.2 46.4672 207.66C47.2472 208.12 47.8572 208.77 48.2972 209.61C48.7472 210.44 48.9722 211.41 48.9722 212.52V216.93C48.9722 218.59 48.4872 219.93 47.5172 220.95C46.5472 221.97 45.2522 222.48 43.6322 222.48ZM43.6472 220.23C44.5772 220.23 45.3222 219.93 45.8822 219.33C46.4422 218.72 46.7222 217.92 46.7222 216.93V212.52C46.7222 211.53 46.4322 210.735 45.8522 210.135C45.2822 209.525 44.5222 209.22 43.5722 209.22C42.6322 209.22 41.8972 209.52 41.3672 210.12C40.8372 210.72 40.5722 211.515 40.5722 212.505V216.93C40.5722 217.92 40.8522 218.72 41.4122 219.33C41.9722 219.93 42.7172 220.23 43.6472 220.23Z" fill="#999999"/>
<rect x="73" y="189" width="45" height="45" rx="6" fill="#D9D9D9"/>
<path d="M92.4753 222L98.4603 200.775L99.1803 201.75H90.1653V199.5H100.56V201.48L94.8753 222H92.4753Z" fill="#999999"/>
<rect x="125" y="189" width="45" height="45" rx="6" fill="#D9D9D9"/>
<path d="M147.51 222.48C145.91 222.48 144.62 221.97 143.64 220.95C142.67 219.93 142.185 218.59 142.185 216.93V214.935C142.185 213.835 142.4 212.875 142.83 212.055C143.26 211.225 143.865 210.58 144.645 210.12L144.66 210.87C143.88 210.43 143.27 209.8 142.83 208.98C142.4 208.15 142.185 207.185 142.185 206.085V204.57C142.185 202.9 142.67 201.56 143.64 200.55C144.62 199.53 145.91 199.02 147.51 199.02C149.12 199.02 150.41 199.53 151.38 200.55C152.35 201.56 152.835 202.9 152.835 204.57V206.085C152.835 207.185 152.615 208.15 152.175 208.98C151.745 209.8 151.135 210.43 150.345 210.87L150.375 210.12C151.145 210.58 151.745 211.225 152.175 212.055C152.615 212.875 152.835 213.835 152.835 214.935V216.93C152.835 218.59 152.35 219.93 151.38 220.95C150.41 221.97 149.12 222.48 147.51 222.48ZM147.51 220.23C148.44 220.23 149.185 219.93 149.745 219.33C150.305 218.72 150.585 217.92 150.585 216.93V214.935C150.585 213.945 150.305 213.15 149.745 212.55C149.185 211.94 148.44 211.635 147.51 211.635C146.58 211.635 145.835 211.94 145.275 212.55C144.715 213.15 144.435 213.945 144.435 214.935V216.93C144.435 217.92 144.715 218.72 145.275 219.33C145.835 219.93 146.58 220.23 147.51 220.23ZM147.51 209.385C148.44 209.385 149.185 209.085 149.745 208.485C150.305 207.875 150.585 207.075 150.585 206.085V204.57C150.585 203.58 150.305 202.785 149.745 202.185C149.185 201.575 148.44 201.27 147.51 201.27C146.58 201.27 145.835 201.575 145.275 202.185C144.715 202.785 144.435 203.58 144.435 204.57V206.085C144.435 207.075 144.715 207.875 145.275 208.485C145.835 209.085 146.58 209.385 147.51 209.385Z" fill="#999999"/>
<rect x="177" y="189" width="45" height="45" rx="6" fill="#D9D9D9"/>
<path d="M199.363 222.48C197.763 222.48 196.473 221.97 195.493 220.95C194.523 219.93 194.038 218.59 194.038 216.93V216.18H196.288V216.93C196.288 217.92 196.568 218.72 197.128 219.33C197.688 219.93 198.433 220.23 199.363 220.23C200.293 220.23 201.038 219.93 201.598 219.33C202.158 218.72 202.438 217.92 202.438 216.93V212.085L202.843 212.595C202.473 213.205 201.988 213.68 201.388 214.02C200.798 214.35 200.078 214.515 199.228 214.515C198.218 214.515 197.323 214.285 196.543 213.825C195.763 213.355 195.148 212.705 194.698 211.875C194.258 211.045 194.038 210.075 194.038 208.965V204.57C194.038 202.9 194.523 201.56 195.493 200.55C196.473 199.53 197.763 199.02 199.363 199.02C200.973 199.02 202.263 199.53 203.233 200.55C204.203 201.56 204.688 202.9 204.688 204.57V216.93C204.688 218.59 204.203 219.93 203.233 220.95C202.263 221.97 200.973 222.48 199.363 222.48ZM199.438 212.265C200.378 212.265 201.113 211.97 201.643 211.38C202.173 210.78 202.438 209.985 202.438 208.995V204.57C202.438 203.58 202.158 202.785 201.598 202.185C201.038 201.575 200.293 201.27 199.363 201.27C198.433 201.27 197.688 201.575 197.128 202.185C196.568 202.785 196.288 203.58 196.288 204.57V208.965C196.288 209.955 196.573 210.755 197.143 211.365C197.713 211.965 198.478 212.265 199.438 212.265Z" fill="#999999"/>
<rect x="229" y="189" width="45" height="45" rx="6" fill="#D9D9D9"/>
<path d="M243.412 222V204.33H240.352V202.08H240.892C241.692 202.08 242.312 201.88 242.752 201.48C243.192 201.08 243.412 200.53 243.412 199.83V199.5H245.662V222H243.412ZM255.704 222.48C254.114 222.48 252.829 221.97 251.849 220.95C250.879 219.93 250.394 218.59 250.394 216.93V204.57C250.394 202.9 250.879 201.56 251.849 200.55C252.829 199.53 254.114 199.02 255.704 199.02C257.324 199.02 258.619 199.53 259.589 200.55C260.559 201.56 261.044 202.9 261.044 204.57V216.93C261.044 218.59 260.559 219.93 259.589 220.95C258.619 221.97 257.324 222.48 255.704 222.48ZM255.719 220.23C256.649 220.23 257.394 219.93 257.954 219.33C258.514 218.72 258.794 217.92 258.794 216.93V204.57C258.794 203.58 258.514 202.785 257.954 202.185C257.394 201.575 256.649 201.27 255.719 201.27C254.789 201.27 254.044 201.575 253.484 202.185C252.924 202.785 252.644 203.58 252.644 204.57V216.93C252.644 217.92 252.924 218.72 253.484 219.33C254.044 219.93 254.789 220.23 255.719 220.23ZM257.579 201.27H259.049L253.859 220.23H252.389L257.579 201.27Z" fill="#6699CC"/>
<rect x="281" y="189" width="45" height="45" rx="6" fill="#D9D9D9"/>
<path d="M298.723 222V204.33H295.663V202.08H296.203C297.003 202.08 297.623 201.88 298.063 201.48C298.503 201.08 298.723 200.53 298.723 199.83V199.5H300.973V222H298.723ZM307.16 222V204.33H304.1V202.08H304.64C305.44 202.08 306.06 201.88 306.5 201.48C306.94 201.08 307.16 200.53 307.16 199.83V199.5H309.41V222H307.16Z" fill="#6699CC"/>
<rect x="333" y="189" width="45" height="45" rx="6" fill="#D9D9D9"/>
<path d="M348.247 222V204.33H345.187V202.08H345.727C346.527 202.08 347.147 201.88 347.587 201.48C348.027 201.08 348.247 200.53 348.247 199.83V199.5H350.497V222H348.247ZM354.344 222V220.11C354.344 218.99 354.544 217.985 354.944 217.095C355.354 216.195 355.879 215.375 356.519 214.635C357.159 213.885 357.834 213.19 358.544 212.55C359.254 211.9 359.929 211.265 360.569 210.645C361.209 210.025 361.729 209.39 362.129 208.74C362.539 208.09 362.744 207.39 362.744 206.64V204.57C362.744 203.58 362.464 202.785 361.904 202.185C361.344 201.575 360.599 201.27 359.669 201.27C358.739 201.27 357.994 201.575 357.434 202.185C356.874 202.785 356.594 203.58 356.594 204.57V205.32H354.344V204.57C354.344 202.9 354.829 201.56 355.799 200.55C356.779 199.53 358.069 199.02 359.669 199.02C361.279 199.02 362.569 199.53 363.539 200.55C364.509 201.57 364.994 202.91 364.994 204.57V206.64C364.994 207.52 364.794 208.345 364.394 209.115C363.994 209.875 363.479 210.595 362.849 211.275C362.219 211.955 361.549 212.62 360.839 213.27C360.139 213.91 359.474 214.56 358.844 215.22C358.214 215.87 357.699 216.545 357.299 217.245C356.899 217.935 356.699 218.68 356.699 219.48V220.77L355.679 219.75H364.994V222H354.344Z" fill="#6699CC"/>
<rect x="21" y="241" width="45" height="45" rx="6" fill="#D9D9D9"/>
<path d="M35.9686 274V256.33H32.9086V254.08H33.4486C34.2486 254.08 34.8686 253.88 35.3086 253.48C35.7486 253.08 35.9686 252.53 35.9686 251.83V251.5H38.2186V274H35.9686ZM47.3611 274.48C45.7611 274.48 44.4711 273.97 43.4911 272.95C42.5211 271.93 42.0361 270.59 42.0361 268.93V268.18H44.2861V268.93C44.2861 269.92 44.5661 270.72 45.1261 271.33C45.6861 271.93 46.4311 272.23 47.3611 272.23C48.2911 272.23 49.0361 271.93 49.5961 271.33C50.1561 270.72 50.4361 269.92 50.4361 268.93V266.92C50.4361 265.93 50.1561 265.135 49.5961 264.535C49.0361 263.925 48.2911 263.62 47.3611 263.62H45.6061V261.37H47.3611C48.2911 261.37 49.0361 261.07 49.5961 260.47C50.1561 259.86 50.4361 259.06 50.4361 258.07V256.57C50.4361 255.58 50.1561 254.785 49.5961 254.185C49.0361 253.575 48.2911 253.27 47.3611 253.27C46.4311 253.27 45.6861 253.575 45.1261 254.185C44.5661 254.785 44.2861 255.58 44.2861 256.57V257.32H42.0361V256.57C42.0361 254.9 42.5211 253.56 43.4911 252.55C44.4711 251.53 45.7611 251.02 47.3611 251.02C48.9711 251.02 50.2611 251.53 51.2311 252.55C52.2011 253.56 52.6861 254.9 52.6861 256.57V258.07C52.6861 259.16 52.4661 260.12 52.0261 260.95C51.5961 261.77 50.9911 262.405 50.2111 262.855L50.2261 262.09C50.9961 262.55 51.5961 263.195 52.0261 264.025C52.4661 264.855 52.6861 265.82 52.6861 266.92V268.93C52.6861 270.59 52.2011 271.93 51.2311 272.95C50.2611 273.97 48.9711 274.48 47.3611 274.48Z" fill="#6699CC"/>
<rect x="73" y="241" width="45" height="45" rx="6" fill="#D9D9D9"/>
<path d="M87.7928 274V256.33H84.7328V254.08H85.2728C86.0728 254.08 86.6928 253.88 87.1328 253.48C87.5728 253.08 87.7928 252.53 87.7928 251.83V251.5H90.0428V274H87.7928ZM101.69 274V269.095H93.2903V267.01L101.705 251.5H103.94V266.875H106.04V269.095H103.94V274H101.69ZM95.1503 267.775L94.6103 266.875H101.69V255.52L95.1503 267.775Z" fill="#6699CC"/>
<rect x="125" y="241" width="45" height="45" rx="6" fill="#D9D9D9"/>
<path d="M139.661 274V256.33H136.601V254.08H137.141C137.941 254.08 138.561 253.88 139.001 253.48C139.441 253.08 139.661 252.53 139.661 251.83V251.5H141.911V274H139.661ZM151.998 274.48C150.408 274.48 149.123 273.97 148.143 272.95C147.173 271.93 146.688 270.59 146.688 268.93V268.18H148.938V268.93C148.938 269.92 149.218 270.72 149.778 271.33C150.338 271.93 151.083 272.23 152.013 272.23C152.943 272.23 153.688 271.93 154.248 271.33C154.808 270.72 155.088 269.92 155.088 268.93V264.52C155.088 263.53 154.798 262.735 154.218 262.135C153.648 261.525 152.888 261.22 151.938 261.22C150.998 261.22 150.263 261.52 149.733 262.12C149.203 262.72 148.938 263.515 148.938 264.505V264.82H146.688V251.5H157.113V253.75H147.918L148.938 252.73V261.415L148.533 260.905C148.903 260.285 149.388 259.81 149.988 259.48C150.588 259.14 151.308 258.97 152.148 258.97C153.158 258.97 154.053 259.2 154.833 259.66C155.613 260.12 156.223 260.77 156.663 261.61C157.113 262.44 157.338 263.41 157.338 264.52V268.93C157.338 270.59 156.853 271.93 155.883 272.95C154.913 273.97 153.618 274.48 151.998 274.48Z" fill="#6699CC"/>
<rect x="177" y="241" width="45" height="45" rx="6" fill="#D9D9D9"/>
<path d="M191.558 274V256.33H188.498V254.08H189.038C189.838 254.08 190.458 253.88 190.898 253.48C191.338 253.08 191.558 252.53 191.558 251.83V251.5H193.808V274H191.558ZM203.851 274.48C202.261 274.48 200.976 273.97 199.996 272.95C199.026 271.93 198.541 270.59 198.541 268.93V256.57C198.541 254.9 199.026 253.56 199.996 252.55C200.976 251.53 202.261 251.02 203.851 251.02C205.471 251.02 206.766 251.53 207.736 252.55C208.706 253.56 209.191 254.9 209.191 256.57V257.32H206.941V256.57C206.941 255.58 206.661 254.785 206.101 254.185C205.541 253.575 204.796 253.27 203.866 253.27C202.936 253.27 202.191 253.575 201.631 254.185C201.071 254.785 200.791 255.58 200.791 256.57V261.415L200.386 260.905C200.756 260.285 201.241 259.81 201.841 259.48C202.441 259.14 203.161 258.97 204.001 258.97C205.011 258.97 205.906 259.2 206.686 259.66C207.466 260.12 208.076 260.77 208.516 261.61C208.966 262.44 209.191 263.41 209.191 264.52V268.93C209.191 270.59 208.706 271.93 207.736 272.95C206.766 273.97 205.471 274.48 203.851 274.48ZM203.866 272.23C204.796 272.23 205.541 271.93 206.101 271.33C206.661 270.72 206.941 269.92 206.941 268.93V264.52C206.941 263.53 206.651 262.735 206.071 262.135C205.501 261.525 204.741 261.22 203.791 261.22C202.851 261.22 202.116 261.52 201.586 262.12C201.056 262.72 200.791 263.515 200.791 264.505V268.93C200.791 269.92 201.071 270.72 201.631 271.33C202.191 271.93 202.936 272.23 203.866 272.23Z" fill="#6699CC"/>
<rect x="229" y="241" width="45" height="45" rx="6" fill="#D9D9D9"/>
<path d="M245.097 274V256.33H242.037V254.08H242.577C243.377 254.08 243.997 253.88 244.437 253.48C244.877 253.08 245.097 252.53 245.097 251.83V251.5H247.347V274H245.097ZM252.694 274L258.679 252.775L259.399 253.75H250.384V251.5H260.779V253.48L255.094 274H252.694Z" fill="#6699CC"/>
<rect x="281" y="241" width="45" height="45" rx="6" fill="#D9D9D9"/>
<path d="M295.632 274V256.33H292.572V254.08H293.112C293.912 254.08 294.532 253.88 294.972 253.48C295.412 253.08 295.632 252.53 295.632 251.83V251.5H297.882V274H295.632ZM307.729 274.48C306.129 274.48 304.839 273.97 303.859 272.95C302.889 271.93 302.404 270.59 302.404 268.93V266.935C302.404 265.835 302.619 264.875 303.049 264.055C303.479 263.225 304.084 262.58 304.864 262.12L304.879 262.87C304.099 262.43 303.489 261.8 303.049 260.98C302.619 260.15 302.404 259.185 302.404 258.085V256.57C302.404 254.9 302.889 253.56 303.859 252.55C304.839 251.53 306.129 251.02 307.729 251.02C309.339 251.02 310.629 251.53 311.599 252.55C312.569 253.56 313.054 254.9 313.054 256.57V258.085C313.054 259.185 312.834 260.15 312.394 260.98C311.964 261.8 311.354 262.43 310.564 262.87L310.594 262.12C311.364 262.58 311.964 263.225 312.394 264.055C312.834 264.875 313.054 265.835 313.054 266.935V268.93C313.054 270.59 312.569 271.93 311.599 272.95C310.629 273.97 309.339 274.48 307.729 274.48ZM307.729 272.23C308.659 272.23 309.404 271.93 309.964 271.33C310.524 270.72 310.804 269.92 310.804 268.93V266.935C310.804 265.945 310.524 265.15 309.964 264.55C309.404 263.94 308.659 263.635 307.729 263.635C306.799 263.635 306.054 263.94 305.494 264.55C304.934 265.15 304.654 265.945 304.654 266.935V268.93C304.654 269.92 304.934 270.72 305.494 271.33C306.054 271.93 306.799 272.23 307.729 272.23ZM307.729 261.385C308.659 261.385 309.404 261.085 309.964 260.485C310.524 259.875 310.804 259.075 310.804 258.085V256.57C310.804 255.58 310.524 254.785 309.964 254.185C309.404 253.575 308.659 253.27 307.729 253.27C306.799 253.27 306.054 253.575 305.494 254.185C304.934 254.785 304.654 255.58 304.654 256.57V258.085C304.654 259.075 304.934 259.875 305.494 260.485C306.054 261.085 306.799 261.385 307.729 261.385Z" fill="#6699CC"/>
<rect x="333" y="241" width="45" height="45" rx="6" fill="#D9D9D9"/>
<path d="M347.544 274V256.33H344.484V254.08H345.024C345.824 254.08 346.444 253.88 346.884 253.48C347.324 253.08 347.544 252.53 347.544 251.83V251.5H349.794V274H347.544ZM359.581 274.48C357.981 274.48 356.691 273.97 355.711 272.95C354.741 271.93 354.256 270.59 354.256 268.93V268.18H356.506V268.93C356.506 269.92 356.786 270.72 357.346 271.33C357.906 271.93 358.651 272.23 359.581 272.23C360.511 272.23 361.256 271.93 361.816 271.33C362.376 270.72 362.656 269.92 362.656 268.93V264.085L363.061 264.595C362.691 265.205 362.206 265.68 361.606 266.02C361.016 266.35 360.296 266.515 359.446 266.515C358.436 266.515 357.541 266.285 356.761 265.825C355.981 265.355 355.366 264.705 354.916 263.875C354.476 263.045 354.256 262.075 354.256 260.965V256.57C354.256 254.9 354.741 253.56 355.711 252.55C356.691 251.53 357.981 251.02 359.581 251.02C361.191 251.02 362.481 251.53 363.451 252.55C364.421 253.56 364.906 254.9 364.906 256.57V268.93C364.906 270.59 364.421 271.93 363.451 272.95C362.481 273.97 361.191 274.48 359.581 274.48ZM359.656 264.265C360.596 264.265 361.331 263.97 361.861 263.38C362.391 262.78 362.656 261.985 362.656 260.995V256.57C362.656 255.58 362.376 254.785 361.816 254.185C361.256 253.575 360.511 253.27 359.581 253.27C358.651 253.27 357.906 253.575 357.346 254.185C356.786 254.785 356.506 255.58 356.506 256.57V260.965C356.506 261.955 356.791 262.755 357.361 263.365C357.931 263.965 358.696 264.265 359.656 264.265Z" fill="#6699CC"/>
<rect x="21" y="293" width="45" height="45" rx="6" fill="#D9D9D9"/>
<path d="M30.5964 326V324.11C30.5964 322.99 30.7964 321.985 31.1964 321.095C31.6064 320.195 32.1314 319.375 32.7714 318.635C33.4114 317.885 34.0864 317.19 34.7964 316.55C35.5064 315.9 36.1814 315.265 36.8214 314.645C37.4614 314.025 37.9814 313.39 38.3814 312.74C38.7914 312.09 38.9964 311.39 38.9964 310.64V308.57C38.9964 307.58 38.7164 306.785 38.1564 306.185C37.5964 305.575 36.8514 305.27 35.9214 305.27C34.9914 305.27 34.2464 305.575 33.6864 306.185C33.1264 306.785 32.8464 307.58 32.8464 308.57V309.32H30.5964V308.57C30.5964 306.9 31.0814 305.56 32.0514 304.55C33.0314 303.53 34.3214 303.02 35.9214 303.02C37.5314 303.02 38.8214 303.53 39.7914 304.55C40.7614 305.57 41.2464 306.91 41.2464 308.57V310.64C41.2464 311.52 41.0464 312.345 40.6464 313.115C40.2464 313.875 39.7314 314.595 39.1014 315.275C38.4714 315.955 37.8014 316.62 37.0914 317.27C36.3914 317.91 35.7264 318.56 35.0964 319.22C34.4664 319.87 33.9514 320.545 33.5514 321.245C33.1514 321.935 32.9514 322.68 32.9514 323.48V324.77L31.9314 323.75H41.2464V326H30.5964ZM50.18 326.48C48.59 326.48 47.305 325.97 46.325 324.95C45.355 323.93 44.87 322.59 44.87 320.93V308.57C44.87 306.9 45.355 305.56 46.325 304.55C47.305 303.53 48.59 303.02 50.18 303.02C51.8 303.02 53.095 303.53 54.065 304.55C55.035 305.56 55.52 306.9 55.52 308.57V320.93C55.52 322.59 55.035 323.93 54.065 324.95C53.095 325.97 51.8 326.48 50.18 326.48ZM50.195 324.23C51.125 324.23 51.87 323.93 52.43 323.33C52.99 322.72 53.27 321.92 53.27 320.93V308.57C53.27 307.58 52.99 306.785 52.43 306.185C51.87 305.575 51.125 305.27 50.195 305.27C49.265 305.27 48.52 305.575 47.96 306.185C47.4 306.785 47.12 307.58 47.12 308.57V320.93C47.12 321.92 47.4 322.72 47.96 323.33C48.52 323.93 49.265 324.23 50.195 324.23ZM52.055 305.27H53.525L48.335 324.23H46.865L52.055 305.27Z" fill="#6699CC"/>
<rect x="73" y="293" width="45" height="45" rx="6" fill="#D9D9D9"/>
<path d="M85.9069 326V324.11C85.9069 322.99 86.1069 321.985 86.5069 321.095C86.9169 320.195 87.4419 319.375 88.0819 318.635C88.7219 317.885 89.3969 317.19 90.1069 316.55C90.8169 315.9 91.4919 315.265 92.1319 314.645C92.7719 314.025 93.2919 313.39 93.6919 312.74C94.1019 312.09 94.3069 311.39 94.3069 310.64V308.57C94.3069 307.58 94.0269 306.785 93.4669 306.185C92.9069 305.575 92.1619 305.27 91.2319 305.27C90.3019 305.27 89.5569 305.575 88.9969 306.185C88.4369 306.785 88.1569 307.58 88.1569 308.57V309.32H85.9069V308.57C85.9069 306.9 86.3919 305.56 87.3619 304.55C88.3419 303.53 89.6319 303.02 91.2319 303.02C92.8419 303.02 94.1319 303.53 95.1019 304.55C96.0719 305.57 96.5569 306.91 96.5569 308.57V310.64C96.5569 311.52 96.3569 312.345 95.9569 313.115C95.5569 313.875 95.0419 314.595 94.4119 315.275C93.7819 315.955 93.1119 316.62 92.4019 317.27C91.7019 317.91 91.0369 318.56 90.4069 319.22C89.7769 319.87 89.2619 320.545 88.8619 321.245C88.4619 321.935 88.2619 322.68 88.2619 323.48V324.77L87.2419 323.75H96.5569V326H85.9069ZM101.636 326V308.33H98.5756V306.08H99.1156C99.9156 306.08 100.536 305.88 100.976 305.48C101.416 305.08 101.636 304.53 101.636 303.83V303.5H103.886V326H101.636Z" fill="#6699CC"/>
<rect x="125" y="293" width="45" height="45" rx="6" fill="#D9D9D9"/>
<path d="M135.431 326V324.11C135.431 322.99 135.631 321.985 136.031 321.095C136.441 320.195 136.966 319.375 137.606 318.635C138.246 317.885 138.921 317.19 139.631 316.55C140.341 315.9 141.016 315.265 141.656 314.645C142.296 314.025 142.816 313.39 143.216 312.74C143.626 312.09 143.831 311.39 143.831 310.64V308.57C143.831 307.58 143.551 306.785 142.991 306.185C142.431 305.575 141.686 305.27 140.756 305.27C139.826 305.27 139.081 305.575 138.521 306.185C137.961 306.785 137.681 307.58 137.681 308.57V309.32H135.431V308.57C135.431 306.9 135.916 305.56 136.886 304.55C137.866 303.53 139.156 303.02 140.756 303.02C142.366 303.02 143.656 303.53 144.626 304.55C145.596 305.57 146.081 306.91 146.081 308.57V310.64C146.081 311.52 145.881 312.345 145.481 313.115C145.081 313.875 144.566 314.595 143.936 315.275C143.306 315.955 142.636 316.62 141.926 317.27C141.226 317.91 140.561 318.56 139.931 319.22C139.301 319.87 138.786 320.545 138.386 321.245C137.986 321.935 137.786 322.68 137.786 323.48V324.77L136.766 323.75H146.081V326H135.431ZM148.82 326V324.11C148.82 322.99 149.02 321.985 149.42 321.095C149.83 320.195 150.355 319.375 150.995 318.635C151.635 317.885 152.31 317.19 153.02 316.55C153.73 315.9 154.405 315.265 155.045 314.645C155.685 314.025 156.205 313.39 156.605 312.74C157.015 312.09 157.22 311.39 157.22 310.64V308.57C157.22 307.58 156.94 306.785 156.38 306.185C155.82 305.575 155.075 305.27 154.145 305.27C153.215 305.27 152.47 305.575 151.91 306.185C151.35 306.785 151.07 307.58 151.07 308.57V309.32H148.82V308.57C148.82 306.9 149.305 305.56 150.275 304.55C151.255 303.53 152.545 303.02 154.145 303.02C155.755 303.02 157.045 303.53 158.015 304.55C158.985 305.57 159.47 306.91 159.47 308.57V310.64C159.47 311.52 159.27 312.345 158.87 313.115C158.47 313.875 157.955 314.595 157.325 315.275C156.695 315.955 156.025 316.62 155.315 317.27C154.615 317.91 153.95 318.56 153.32 319.22C152.69 319.87 152.175 320.545 151.775 321.245C151.375 321.935 151.175 322.68 151.175 323.48V324.77L150.155 323.75H159.47V326H148.82Z" fill="#6699CC"/>
<rect x="177" y="293" width="45" height="45" rx="6" fill="#D9D9D9"/>
<path d="M187.153 326V324.11C187.153 322.99 187.353 321.985 187.753 321.095C188.163 320.195 188.688 319.375 189.328 318.635C189.968 317.885 190.643 317.19 191.353 316.55C192.063 315.9 192.738 315.265 193.378 314.645C194.018 314.025 194.538 313.39 194.938 312.74C195.348 312.09 195.553 311.39 195.553 310.64V308.57C195.553 307.58 195.273 306.785 194.713 306.185C194.153 305.575 193.408 305.27 192.478 305.27C191.548 305.27 190.803 305.575 190.243 306.185C189.683 306.785 189.403 307.58 189.403 308.57V309.32H187.153V308.57C187.153 306.9 187.638 305.56 188.608 304.55C189.588 303.53 190.878 303.02 192.478 303.02C194.088 303.02 195.378 303.53 196.348 304.55C197.318 305.57 197.803 306.91 197.803 308.57V310.64C197.803 311.52 197.603 312.345 197.203 313.115C196.803 313.875 196.288 314.595 195.658 315.275C195.028 315.955 194.358 316.62 193.648 317.27C192.948 317.91 192.283 318.56 191.653 319.22C191.023 319.87 190.508 320.545 190.108 321.245C189.708 321.935 189.508 322.68 189.508 323.48V324.77L188.488 323.75H197.803V326H187.153ZM205.837 326.48C204.237 326.48 202.947 325.97 201.967 324.95C200.997 323.93 200.512 322.59 200.512 320.93V320.18H202.762V320.93C202.762 321.92 203.042 322.72 203.602 323.33C204.162 323.93 204.907 324.23 205.837 324.23C206.767 324.23 207.512 323.93 208.072 323.33C208.632 322.72 208.912 321.92 208.912 320.93V318.92C208.912 317.93 208.632 317.135 208.072 316.535C207.512 315.925 206.767 315.62 205.837 315.62H204.082V313.37H205.837C206.767 313.37 207.512 313.07 208.072 312.47C208.632 311.86 208.912 311.06 208.912 310.07V308.57C208.912 307.58 208.632 306.785 208.072 306.185C207.512 305.575 206.767 305.27 205.837 305.27C204.907 305.27 204.162 305.575 203.602 306.185C203.042 306.785 202.762 307.58 202.762 308.57V309.32H200.512V308.57C200.512 306.9 200.997 305.56 201.967 304.55C202.947 303.53 204.237 303.02 205.837 303.02C207.447 303.02 208.737 303.53 209.707 304.55C210.677 305.56 211.162 306.9 211.162 308.57V310.07C211.162 311.16 210.942 312.12 210.502 312.95C210.072 313.77 209.467 314.405 208.687 314.855L208.702 314.09C209.472 314.55 210.072 315.195 210.502 316.025C210.942 316.855 211.162 317.82 211.162 318.92V320.93C211.162 322.59 210.677 323.93 209.707 324.95C208.737 325.97 207.447 326.48 205.837 326.48Z" fill="#6699CC"/>
<rect x="229" y="293" width="45" height="45" rx="6" fill="#D9D9D9"/>
<path d="M238.977 326V324.11C238.977 322.99 239.177 321.985 239.577 321.095C239.987 320.195 240.512 319.375 241.152 318.635C241.792 317.885 242.467 317.19 243.177 316.55C243.887 315.9 244.562 315.265 245.202 314.645C245.842 314.025 246.362 313.39 246.762 312.74C247.172 312.09 247.377 311.39 247.377 310.64V308.57C247.377 307.58 247.097 306.785 246.537 306.185C245.977 305.575 245.232 305.27 244.302 305.27C243.372 305.27 242.627 305.575 242.067 306.185C241.507 306.785 241.227 307.58 241.227 308.57V309.32H238.977V308.57C238.977 306.9 239.462 305.56 240.432 304.55C241.412 303.53 242.702 303.02 244.302 303.02C245.912 303.02 247.202 303.53 248.172 304.55C249.142 305.57 249.627 306.91 249.627 308.57V310.64C249.627 311.52 249.427 312.345 249.027 313.115C248.627 313.875 248.112 314.595 247.482 315.275C246.852 315.955 246.182 316.62 245.472 317.27C244.772 317.91 244.107 318.56 243.477 319.22C242.847 319.87 242.332 320.545 241.932 321.245C241.532 321.935 241.332 322.68 241.332 323.48V324.77L240.312 323.75H249.627V326H238.977ZM260.166 326V321.095H251.766V319.01L260.181 303.5H262.416V318.875H264.516V321.095H262.416V326H260.166ZM253.626 319.775L253.086 318.875H260.166V307.52L253.626 319.775Z" fill="#6699CC"/>
<rect x="281" y="293" width="45" height="45" rx="6" fill="#D9D9D9"/>
<path d="M290.845 326V324.11C290.845 322.99 291.045 321.985 291.445 321.095C291.855 320.195 292.38 319.375 293.02 318.635C293.66 317.885 294.335 317.19 295.045 316.55C295.755 315.9 296.43 315.265 297.07 314.645C297.71 314.025 298.23 313.39 298.63 312.74C299.04 312.09 299.245 311.39 299.245 310.64V308.57C299.245 307.58 298.965 306.785 298.405 306.185C297.845 305.575 297.1 305.27 296.17 305.27C295.24 305.27 294.495 305.575 293.935 306.185C293.375 306.785 293.095 307.58 293.095 308.57V309.32H290.845V308.57C290.845 306.9 291.33 305.56 292.3 304.55C293.28 303.53 294.57 303.02 296.17 303.02C297.78 303.02 299.07 303.53 300.04 304.55C301.01 305.57 301.495 306.91 301.495 308.57V310.64C301.495 311.52 301.295 312.345 300.895 313.115C300.495 313.875 299.98 314.595 299.35 315.275C298.72 315.955 298.05 316.62 297.34 317.27C296.64 317.91 295.975 318.56 295.345 319.22C294.715 319.87 294.2 320.545 293.8 321.245C293.4 321.935 293.2 322.68 293.2 323.48V324.77L292.18 323.75H301.495V326H290.845ZM310.474 326.48C308.884 326.48 307.599 325.97 306.619 324.95C305.649 323.93 305.164 322.59 305.164 320.93V320.18H307.414V320.93C307.414 321.92 307.694 322.72 308.254 323.33C308.814 323.93 309.559 324.23 310.489 324.23C311.419 324.23 312.164 323.93 312.724 323.33C313.284 322.72 313.564 321.92 313.564 320.93V316.52C313.564 315.53 313.274 314.735 312.694 314.135C312.124 313.525 311.364 313.22 310.414 313.22C309.474 313.22 308.739 313.52 308.209 314.12C307.679 314.72 307.414 315.515 307.414 316.505V316.82H305.164V303.5H315.589V305.75H306.394L307.414 304.73V313.415L307.009 312.905C307.379 312.285 307.864 311.81 308.464 311.48C309.064 311.14 309.784 310.97 310.624 310.97C311.634 310.97 312.529 311.2 313.309 311.66C314.089 312.12 314.699 312.77 315.139 313.61C315.589 314.44 315.814 315.41 315.814 316.52V320.93C315.814 322.59 315.329 323.93 314.359 324.95C313.389 325.97 312.094 326.48 310.474 326.48Z" fill="#6699CC"/>
<rect x="333" y="293" width="45" height="45" rx="6" fill="#D9D9D9"/>
<path d="M342.743 326V324.11C342.743 322.99 342.943 321.985 343.343 321.095C343.753 320.195 344.278 319.375 344.918 318.635C345.558 317.885 346.233 317.19 346.943 316.55C347.653 315.9 348.328 315.265 348.968 314.645C349.608 314.025 350.128 313.39 350.528 312.74C350.938 312.09 351.143 311.39 351.143 310.64V308.57C351.143 307.58 350.863 306.785 350.303 306.185C349.743 305.575 348.998 305.27 348.068 305.27C347.138 305.27 346.393 305.575 345.833 306.185C345.273 306.785 344.993 307.58 344.993 308.57V309.32H342.743V308.57C342.743 306.9 343.228 305.56 344.198 304.55C345.178 303.53 346.468 303.02 348.068 303.02C349.678 303.02 350.968 303.53 351.938 304.55C352.908 305.57 353.393 306.91 353.393 308.57V310.64C353.393 311.52 353.193 312.345 352.793 313.115C352.393 313.875 351.878 314.595 351.248 315.275C350.618 315.955 349.948 316.62 349.238 317.27C348.538 317.91 347.873 318.56 347.243 319.22C346.613 319.87 346.098 320.545 345.698 321.245C345.298 321.935 345.098 322.68 345.098 323.48V324.77L344.078 323.75H353.393V326H342.743ZM362.327 326.48C360.737 326.48 359.452 325.97 358.472 324.95C357.502 323.93 357.017 322.59 357.017 320.93V308.57C357.017 306.9 357.502 305.56 358.472 304.55C359.452 303.53 360.737 303.02 362.327 303.02C363.947 303.02 365.242 303.53 366.212 304.55C367.182 305.56 367.667 306.9 367.667 308.57V309.32H365.417V308.57C365.417 307.58 365.137 306.785 364.577 306.185C364.017 305.575 363.272 305.27 362.342 305.27C361.412 305.27 360.667 305.575 360.107 306.185C359.547 306.785 359.267 307.58 359.267 308.57V313.415L358.862 312.905C359.232 312.285 359.717 311.81 360.317 311.48C360.917 311.14 361.637 310.97 362.477 310.97C363.487 310.97 364.382 311.2 365.162 311.66C365.942 312.12 366.552 312.77 366.992 313.61C367.442 314.44 367.667 315.41 367.667 316.52V320.93C367.667 322.59 367.182 323.93 366.212 324.95C365.242 325.97 363.947 326.48 362.327 326.48ZM362.342 324.23C363.272 324.23 364.017 323.93 364.577 323.33C365.137 322.72 365.417 321.92 365.417 320.93V316.52C365.417 315.53 365.127 314.735 364.547 314.135C363.977 313.525 363.217 313.22 362.267 313.22C361.327 313.22 360.592 313.52 360.062 314.12C359.532 314.72 359.267 315.515 359.267 316.505V320.93C359.267 321.92 359.547 322.72 360.107 323.33C360.667 323.93 361.412 324.23 362.342 324.23Z" fill="#6699CC"/>
<rect x="21" y="345" width="45" height="45" rx="6" fill="#D9D9D9"/>
<path d="M32.2809 378V376.11C32.2809 374.99 32.4809 373.985 32.8809 373.095C33.2909 372.195 33.8159 371.375 34.4559 370.635C35.0959 369.885 35.7709 369.19 36.4809 368.55C37.1909 367.9 37.8659 367.265 38.5059 366.645C39.1459 366.025 39.6659 365.39 40.0659 364.74C40.4759 364.09 40.6809 363.39 40.6809 362.64V360.57C40.6809 359.58 40.4009 358.785 39.8409 358.185C39.2809 357.575 38.5359 357.27 37.6059 357.27C36.6759 357.27 35.9309 357.575 35.3709 358.185C34.8109 358.785 34.5309 359.58 34.5309 360.57V361.32H32.2809V360.57C32.2809 358.9 32.7659 357.56 33.7359 356.55C34.7159 355.53 36.0059 355.02 37.6059 355.02C39.2159 355.02 40.5059 355.53 41.4759 356.55C42.4459 357.57 42.9309 358.91 42.9309 360.57V362.64C42.9309 363.52 42.7309 364.345 42.3309 365.115C41.9309 365.875 41.4159 366.595 40.7859 367.275C40.1559 367.955 39.4859 368.62 38.7759 369.27C38.0759 369.91 37.4109 370.56 36.7809 371.22C36.1509 371.87 35.6359 372.545 35.2359 373.245C34.8359 373.935 34.6359 374.68 34.6359 375.48V376.77L33.6159 375.75H42.9309V378H32.2809ZM47.1696 378L53.1546 356.775L53.8746 357.75H44.8596V355.5H55.2546V357.48L49.5696 378H47.1696Z" fill="#6699CC"/>
<rect x="73" y="345" width="45" height="45" rx="6" fill="#D9D9D9"/>
<path d="M82.8161 378V376.11C82.8161 374.99 83.0161 373.985 83.4161 373.095C83.8261 372.195 84.3511 371.375 84.9911 370.635C85.6311 369.885 86.3061 369.19 87.0161 368.55C87.7261 367.9 88.4011 367.265 89.0411 366.645C89.6811 366.025 90.2011 365.39 90.6011 364.74C91.0111 364.09 91.2161 363.39 91.2161 362.64V360.57C91.2161 359.58 90.9361 358.785 90.3761 358.185C89.8161 357.575 89.0711 357.27 88.1411 357.27C87.2111 357.27 86.4661 357.575 85.9061 358.185C85.3461 358.785 85.0661 359.58 85.0661 360.57V361.32H82.8161V360.57C82.8161 358.9 83.3011 357.56 84.2711 356.55C85.2511 355.53 86.5411 355.02 88.1411 355.02C89.7511 355.02 91.0411 355.53 92.0111 356.55C92.9811 357.57 93.4661 358.91 93.4661 360.57V362.64C93.4661 363.52 93.2661 364.345 92.8661 365.115C92.4661 365.875 91.9511 366.595 91.3211 367.275C90.6911 367.955 90.0211 368.62 89.3111 369.27C88.6111 369.91 87.9461 370.56 87.3161 371.22C86.6861 371.87 86.1711 372.545 85.7711 373.245C85.3711 373.935 85.1711 374.68 85.1711 375.48V376.77L84.1511 375.75H93.4661V378H82.8161ZM102.205 378.48C100.605 378.48 99.3148 377.97 98.3348 376.95C97.3648 375.93 96.8798 374.59 96.8798 372.93V370.935C96.8798 369.835 97.0948 368.875 97.5248 368.055C97.9548 367.225 98.5598 366.58 99.3398 366.12L99.3548 366.87C98.5748 366.43 97.9648 365.8 97.5248 364.98C97.0948 364.15 96.8798 363.185 96.8798 362.085V360.57C96.8798 358.9 97.3648 357.56 98.3348 356.55C99.3148 355.53 100.605 355.02 102.205 355.02C103.815 355.02 105.105 355.53 106.075 356.55C107.045 357.56 107.53 358.9 107.53 360.57V362.085C107.53 363.185 107.31 364.15 106.87 364.98C106.44 365.8 105.83 366.43 105.04 366.87L105.07 366.12C105.84 366.58 106.44 367.225 106.87 368.055C107.31 368.875 107.53 369.835 107.53 370.935V372.93C107.53 374.59 107.045 375.93 106.075 376.95C105.105 377.97 103.815 378.48 102.205 378.48ZM102.205 376.23C103.135 376.23 103.88 375.93 104.44 375.33C105 374.72 105.28 373.92 105.28 372.93V370.935C105.28 369.945 105 369.15 104.44 368.55C103.88 367.94 103.135 367.635 102.205 367.635C101.275 367.635 100.53 367.94 99.9698 368.55C99.4098 369.15 99.1298 369.945 99.1298 370.935V372.93C99.1298 373.92 99.4098 374.72 99.9698 375.33C100.53 375.93 101.275 376.23 102.205 376.23ZM102.205 365.385C103.135 365.385 103.88 365.085 104.44 364.485C105 363.875 105.28 363.075 105.28 362.085V360.57C105.28 359.58 105 358.785 104.44 358.185C103.88 357.575 103.135 357.27 102.205 357.27C101.275 357.27 100.53 357.575 99.9698 358.185C99.4098 358.785 99.1298 359.58 99.1298 360.57V362.085C99.1298 363.075 99.4098 363.875 99.9698 364.485C100.53 365.085 101.275 365.385 102.205 365.385Z" fill="#6699CC"/>
<rect x="125" y="345" width="45" height="45" rx="6" fill="#D9D9D9"/>
<path d="M134.728 378V376.11C134.728 374.99 134.928 373.985 135.328 373.095C135.738 372.195 136.263 371.375 136.903 370.635C137.543 369.885 138.218 369.19 138.928 368.55C139.638 367.9 140.313 367.265 140.953 366.645C141.593 366.025 142.113 365.39 142.513 364.74C142.923 364.09 143.128 363.39 143.128 362.64V360.57C143.128 359.58 142.848 358.785 142.288 358.185C141.728 357.575 140.983 357.27 140.053 357.27C139.123 357.27 138.378 357.575 137.818 358.185C137.258 358.785 136.978 359.58 136.978 360.57V361.32H134.728V360.57C134.728 358.9 135.213 357.56 136.183 356.55C137.163 355.53 138.453 355.02 140.053 355.02C141.663 355.02 142.953 355.53 143.923 356.55C144.893 357.57 145.378 358.91 145.378 360.57V362.64C145.378 363.52 145.178 364.345 144.778 365.115C144.378 365.875 143.863 366.595 143.233 367.275C142.603 367.955 141.933 368.62 141.223 369.27C140.523 369.91 139.858 370.56 139.228 371.22C138.598 371.87 138.083 372.545 137.683 373.245C137.283 373.935 137.083 374.68 137.083 375.48V376.77L136.063 375.75H145.378V378H134.728ZM154.057 378.48C152.457 378.48 151.167 377.97 150.187 376.95C149.217 375.93 148.732 374.59 148.732 372.93V372.18H150.982V372.93C150.982 373.92 151.262 374.72 151.822 375.33C152.382 375.93 153.127 376.23 154.057 376.23C154.987 376.23 155.732 375.93 156.292 375.33C156.852 374.72 157.132 373.92 157.132 372.93V368.085L157.537 368.595C157.167 369.205 156.682 369.68 156.082 370.02C155.492 370.35 154.772 370.515 153.922 370.515C152.912 370.515 152.017 370.285 151.237 369.825C150.457 369.355 149.842 368.705 149.392 367.875C148.952 367.045 148.732 366.075 148.732 364.965V360.57C148.732 358.9 149.217 357.56 150.187 356.55C151.167 355.53 152.457 355.02 154.057 355.02C155.667 355.02 156.957 355.53 157.927 356.55C158.897 357.56 159.382 358.9 159.382 360.57V372.93C159.382 374.59 158.897 375.93 157.927 376.95C156.957 377.97 155.667 378.48 154.057 378.48ZM154.132 368.265C155.072 368.265 155.807 367.97 156.337 367.38C156.867 366.78 157.132 365.985 157.132 364.995V360.57C157.132 359.58 156.852 358.785 156.292 358.185C155.732 357.575 154.987 357.27 154.057 357.27C153.127 357.27 152.382 357.575 151.822 358.185C151.262 358.785 150.982 359.58 150.982 360.57V364.965C150.982 365.955 151.267 366.755 151.837 367.365C152.407 367.965 153.172 368.265 154.132 368.265Z" fill="#6699CC"/>
<rect x="177" y="345" width="45" height="45" rx="6" fill="#D9D9D9"/>
<path d="M191.613 378.48C190.013 378.48 188.723 377.97 187.743 376.95C186.773 375.93 186.288 374.59 186.288 372.93V372.18H188.538V372.93C188.538 373.92 188.818 374.72 189.378 375.33C189.938 375.93 190.683 376.23 191.613 376.23C192.543 376.23 193.288 375.93 193.848 375.33C194.408 374.72 194.688 373.92 194.688 372.93V370.92C194.688 369.93 194.408 369.135 193.848 368.535C193.288 367.925 192.543 367.62 191.613 367.62H189.858V365.37H191.613C192.543 365.37 193.288 365.07 193.848 364.47C194.408 363.86 194.688 363.06 194.688 362.07V360.57C194.688 359.58 194.408 358.785 193.848 358.185C193.288 357.575 192.543 357.27 191.613 357.27C190.683 357.27 189.938 357.575 189.378 358.185C188.818 358.785 188.538 359.58 188.538 360.57V361.32H186.288V360.57C186.288 358.9 186.773 357.56 187.743 356.55C188.723 355.53 190.013 355.02 191.613 355.02C193.223 355.02 194.513 355.53 195.483 356.55C196.453 357.56 196.938 358.9 196.938 360.57V362.07C196.938 363.16 196.718 364.12 196.278 364.95C195.848 365.77 195.243 366.405 194.463 366.855L194.478 366.09C195.248 366.55 195.848 367.195 196.278 368.025C196.718 368.855 196.938 369.82 196.938 370.92V372.93C196.938 374.59 196.453 375.93 195.483 376.95C194.513 377.97 193.223 378.48 191.613 378.48ZM206.458 378.48C204.868 378.48 203.583 377.97 202.603 376.95C201.633 375.93 201.148 374.59 201.148 372.93V360.57C201.148 358.9 201.633 357.56 202.603 356.55C203.583 355.53 204.868 355.02 206.458 355.02C208.078 355.02 209.373 355.53 210.343 356.55C211.313 357.56 211.798 358.9 211.798 360.57V372.93C211.798 374.59 211.313 375.93 210.343 376.95C209.373 377.97 208.078 378.48 206.458 378.48ZM206.473 376.23C207.403 376.23 208.148 375.93 208.708 375.33C209.268 374.72 209.548 373.92 209.548 372.93V360.57C209.548 359.58 209.268 358.785 208.708 358.185C208.148 357.575 207.403 357.27 206.473 357.27C205.543 357.27 204.798 357.575 204.238 358.185C203.678 358.785 203.398 359.58 203.398 360.57V372.93C203.398 373.92 203.678 374.72 204.238 375.33C204.798 375.93 205.543 376.23 206.473 376.23ZM208.333 357.27H209.803L204.613 376.23H203.143L208.333 357.27Z" fill="#6699CC"/>
<rect x="229" y="345" width="45" height="45" rx="6" fill="#D9D9D9"/>
<path d="M246.924 378.48C245.324 378.48 244.034 377.97 243.054 376.95C242.084 375.93 241.599 374.59 241.599 372.93V372.18H243.849V372.93C243.849 373.92 244.129 374.72 244.689 375.33C245.249 375.93 245.994 376.23 246.924 376.23C247.854 376.23 248.599 375.93 249.159 375.33C249.719 374.72 249.999 373.92 249.999 372.93V370.92C249.999 369.93 249.719 369.135 249.159 368.535C248.599 367.925 247.854 367.62 246.924 367.62H245.169V365.37H246.924C247.854 365.37 248.599 365.07 249.159 364.47C249.719 363.86 249.999 363.06 249.999 362.07V360.57C249.999 359.58 249.719 358.785 249.159 358.185C248.599 357.575 247.854 357.27 246.924 357.27C245.994 357.27 245.249 357.575 244.689 358.185C244.129 358.785 243.849 359.58 243.849 360.57V361.32H241.599V360.57C241.599 358.9 242.084 357.56 243.054 356.55C244.034 355.53 245.324 355.02 246.924 355.02C248.534 355.02 249.824 355.53 250.794 356.55C251.764 357.56 252.249 358.9 252.249 360.57V362.07C252.249 363.16 252.029 364.12 251.589 364.95C251.159 365.77 250.554 366.405 249.774 366.855L249.789 366.09C250.559 366.55 251.159 367.195 251.589 368.025C252.029 368.855 252.249 369.82 252.249 370.92V372.93C252.249 374.59 251.764 375.93 250.794 376.95C249.824 377.97 248.534 378.48 246.924 378.48ZM257.914 378V360.33H254.854V358.08H255.394C256.194 358.08 256.814 357.88 257.254 357.48C257.694 357.08 257.914 356.53 257.914 355.83V355.5H260.164V378H257.914Z" fill="#6699CC"/>
<rect opacity="0.4" x="281" y="345" width="45" height="45" rx="6" fill="#D9D9D9"/>
<path opacity="0.4" d="M302.941 378V360.33H299.881V358.08H300.421C301.221 358.08 301.841 357.88 302.281 357.48C302.721 357.08 302.941 356.53 302.941 355.83V355.5H305.191V378H302.941Z" fill="#336699"/>
<rect opacity="0.4" x="333" y="345" width="45" height="45" rx="6" fill="#D9D9D9"/>
<path opacity="0.4" d="M350.126 378V376.11C350.126 374.99 350.326 373.985 350.726 373.095C351.136 372.195 351.661 371.375 352.301 370.635C352.941 369.885 353.616 369.19 354.326 368.55C355.036 367.9 355.711 367.265 356.351 366.645C356.991 366.025 357.511 365.39 357.911 364.74C358.321 364.09 358.526 363.39 358.526 362.64V360.57C358.526 359.58 358.246 358.785 357.686 358.185C357.126 357.575 356.381 357.27 355.451 357.27C354.521 357.27 353.776 357.575 353.216 358.185C352.656 358.785 352.376 359.58 352.376 360.57V361.32H350.126V360.57C350.126 358.9 350.611 357.56 351.581 356.55C352.561 355.53 353.851 355.02 355.451 355.02C357.061 355.02 358.351 355.53 359.321 356.55C360.291 357.57 360.776 358.91 360.776 360.57V362.64C360.776 363.52 360.576 364.345 360.176 365.115C359.776 365.875 359.261 366.595 358.631 367.275C358.001 367.955 357.331 368.62 356.621 369.27C355.921 369.91 355.256 370.56 354.626 371.22C353.996 371.87 353.481 372.545 353.081 373.245C352.681 373.935 352.481 374.68 352.481 375.48V376.77L351.461 375.75H360.776V378H350.126Z" fill="#336699"/>
<path d="M37.3239 111.71C37.2784 111.252 37.0833 110.896 36.7386 110.642C36.3939 110.388 35.9261 110.261 35.3352 110.261C34.9337 110.261 34.5947 110.318 34.3182 110.432C34.0417 110.542 33.8295 110.695 33.6818 110.892C33.5379 111.089 33.4659 111.312 33.4659 111.562C33.4583 111.771 33.5019 111.953 33.5966 112.108C33.6951 112.263 33.8295 112.398 34 112.511C34.1705 112.621 34.3674 112.718 34.5909 112.801C34.8144 112.881 35.053 112.949 35.3068 113.006L36.3523 113.256C36.8598 113.369 37.3258 113.521 37.75 113.71C38.1742 113.9 38.5417 114.133 38.8523 114.409C39.1629 114.686 39.4034 115.011 39.5739 115.386C39.7481 115.761 39.8371 116.191 39.8409 116.676C39.8371 117.388 39.6553 118.006 39.2955 118.528C38.9394 119.047 38.4242 119.451 37.75 119.739C37.0795 120.023 36.2708 120.165 35.3239 120.165C34.3845 120.165 33.5663 120.021 32.8693 119.733C32.1761 119.445 31.6345 119.019 31.2443 118.455C30.858 117.886 30.6553 117.184 30.6364 116.347H33.017C33.0436 116.737 33.1553 117.062 33.3523 117.324C33.553 117.581 33.8201 117.777 34.1534 117.909C34.4905 118.038 34.8712 118.102 35.2955 118.102C35.7121 118.102 36.0739 118.042 36.3807 117.92C36.6913 117.799 36.9318 117.631 37.1023 117.415C37.2727 117.199 37.358 116.951 37.358 116.67C37.358 116.409 37.2803 116.189 37.125 116.011C36.9735 115.833 36.75 115.682 36.4545 115.557C36.1629 115.432 35.8049 115.318 35.3807 115.216L34.1136 114.898C33.1326 114.659 32.358 114.286 31.7898 113.778C31.2216 113.271 30.9394 112.587 30.9432 111.727C30.9394 111.023 31.1269 110.407 31.5057 109.881C31.8883 109.354 32.4129 108.943 33.0795 108.648C33.7462 108.352 34.5038 108.205 35.3523 108.205C36.2159 108.205 36.9697 108.352 37.6136 108.648C38.2614 108.943 38.7652 109.354 39.125 109.881C39.4848 110.407 39.6705 111.017 39.6818 111.71H37.3239ZM47.0469 116.284V111.273H49.4673V120H47.1435V118.415H47.0526C46.8556 118.926 46.5279 119.337 46.0696 119.648C45.6151 119.958 45.0601 120.114 44.4048 120.114C43.8215 120.114 43.3082 119.981 42.8651 119.716C42.4219 119.451 42.0753 119.074 41.8253 118.585C41.5791 118.097 41.4541 117.511 41.4503 116.83V111.273H43.8707V116.398C43.8745 116.913 44.0128 117.32 44.2855 117.619C44.5582 117.919 44.9238 118.068 45.3821 118.068C45.6738 118.068 45.9465 118.002 46.2003 117.869C46.4541 117.733 46.6586 117.532 46.8139 117.267C46.973 117.002 47.0507 116.674 47.0469 116.284ZM53.8239 114.955V120H51.4034V111.273H53.7102V112.812H53.8125C54.0057 112.305 54.3295 111.903 54.7841 111.608C55.2386 111.309 55.7898 111.159 56.4375 111.159C57.0436 111.159 57.572 111.292 58.0227 111.557C58.4735 111.822 58.8239 112.201 59.0739 112.693C59.3239 113.182 59.4489 113.765 59.4489 114.443V120H57.0284V114.875C57.0322 114.341 56.8958 113.924 56.6193 113.625C56.3428 113.322 55.9621 113.17 55.4773 113.17C55.1515 113.17 54.8636 113.241 54.6136 113.381C54.3674 113.521 54.1742 113.725 54.0341 113.994C53.8977 114.259 53.8277 114.58 53.8239 114.955Z" fill="white"/>
<path d="M82.0114 108.364H85.0455L88.25 116.182H88.3864L91.5909 108.364H94.625V120H92.2386V112.426H92.142L89.1307 119.943H87.5057L84.4943 112.398H84.3977V120H82.0114V108.364ZM100.55 120.17C99.6671 120.17 98.9039 119.983 98.2599 119.608C97.6198 119.229 97.1255 118.703 96.777 118.028C96.4285 117.35 96.2543 116.564 96.2543 115.67C96.2543 114.769 96.4285 113.981 96.777 113.307C97.1255 112.629 97.6198 112.102 98.2599 111.727C98.9039 111.348 99.6671 111.159 100.55 111.159C101.432 111.159 102.194 111.348 102.834 111.727C103.478 112.102 103.974 112.629 104.322 113.307C104.671 113.981 104.845 114.769 104.845 115.67C104.845 116.564 104.671 117.35 104.322 118.028C103.974 118.703 103.478 119.229 102.834 119.608C102.194 119.983 101.432 120.17 100.55 120.17ZM100.561 118.295C100.963 118.295 101.298 118.182 101.567 117.955C101.836 117.723 102.038 117.409 102.175 117.011C102.315 116.614 102.385 116.161 102.385 115.653C102.385 115.146 102.315 114.693 102.175 114.295C102.038 113.898 101.836 113.583 101.567 113.352C101.298 113.121 100.963 113.006 100.561 113.006C100.156 113.006 99.8149 113.121 99.5384 113.352C99.2656 113.583 99.0592 113.898 98.919 114.295C98.7827 114.693 98.7145 115.146 98.7145 115.653C98.7145 116.161 98.7827 116.614 98.919 117.011C99.0592 117.409 99.2656 117.723 99.5384 117.955C99.8149 118.182 100.156 118.295 100.561 118.295ZM108.839 114.955V120H106.419V111.273H108.726V112.812H108.828C109.021 112.305 109.345 111.903 109.8 111.608C110.254 111.309 110.805 111.159 111.453 111.159C112.059 111.159 112.588 111.292 113.038 111.557C113.489 111.822 113.839 112.201 114.089 112.693C114.339 113.182 114.464 113.765 114.464 114.443V120H112.044V114.875C112.048 114.341 111.911 113.924 111.635 113.625C111.358 113.322 110.978 113.17 110.493 113.17C110.167 113.17 109.879 113.241 109.629 113.381C109.383 113.521 109.19 113.725 109.05 113.994C108.913 114.259 108.843 114.58 108.839 114.955Z" fill="white"/>
<path d="M130.568 110.392V108.364H140.125V110.392H136.562V120H134.131V110.392H130.568ZM146.062 116.284V111.273H148.483V120H146.159V118.415H146.068C145.871 118.926 145.544 119.337 145.085 119.648C144.631 119.958 144.076 120.114 143.42 120.114C142.837 120.114 142.324 119.981 141.881 119.716C141.438 119.451 141.091 119.074 140.841 118.585C140.595 118.097 140.47 117.511 140.466 116.83V111.273H142.886V116.398C142.89 116.913 143.028 117.32 143.301 117.619C143.574 117.919 143.939 118.068 144.398 118.068C144.689 118.068 144.962 118.002 145.216 117.869C145.47 117.733 145.674 117.532 145.83 117.267C145.989 117.002 146.066 116.674 146.062 116.284ZM154.396 120.17C153.499 120.17 152.726 119.989 152.078 119.625C151.434 119.258 150.938 118.739 150.589 118.068C150.241 117.394 150.067 116.597 150.067 115.676C150.067 114.778 150.241 113.991 150.589 113.312C150.938 112.634 151.429 112.106 152.061 111.727C152.697 111.348 153.444 111.159 154.3 111.159C154.875 111.159 155.411 111.252 155.908 111.438C156.408 111.619 156.843 111.894 157.214 112.261C157.589 112.629 157.881 113.091 158.089 113.648C158.298 114.201 158.402 114.848 158.402 115.591V116.256H151.033V114.756H156.124C156.124 114.407 156.048 114.098 155.896 113.83C155.745 113.561 155.535 113.35 155.266 113.199C155 113.044 154.692 112.966 154.339 112.966C153.972 112.966 153.646 113.051 153.362 113.222C153.082 113.388 152.862 113.614 152.703 113.898C152.544 114.178 152.463 114.491 152.459 114.835V116.261C152.459 116.693 152.538 117.066 152.697 117.381C152.86 117.695 153.089 117.938 153.385 118.108C153.68 118.278 154.031 118.364 154.436 118.364C154.705 118.364 154.951 118.326 155.175 118.25C155.398 118.174 155.589 118.061 155.749 117.909C155.908 117.758 156.029 117.572 156.112 117.352L158.351 117.5C158.237 118.038 158.004 118.508 157.652 118.909C157.304 119.307 156.853 119.617 156.3 119.841C155.75 120.061 155.116 120.17 154.396 120.17Z" fill="white"/>
<path d="M187.631 120L184.301 108.364H186.989L188.915 116.449H189.011L191.136 108.364H193.438L195.557 116.466H195.659L197.585 108.364H200.273L196.943 120H194.545L192.33 112.392H192.239L190.028 120H187.631ZM204.584 120.17C203.686 120.17 202.913 119.989 202.266 119.625C201.622 119.258 201.125 118.739 200.777 118.068C200.429 117.394 200.254 116.597 200.254 115.676C200.254 114.778 200.429 113.991 200.777 113.312C201.125 112.634 201.616 112.106 202.249 111.727C202.885 111.348 203.631 111.159 204.487 111.159C205.063 111.159 205.599 111.252 206.095 111.438C206.595 111.619 207.031 111.894 207.402 112.261C207.777 112.629 208.069 113.091 208.277 113.648C208.485 114.201 208.589 114.848 208.589 115.591V116.256H201.22V114.756H206.311C206.311 114.407 206.235 114.098 206.084 113.83C205.932 113.561 205.722 113.35 205.453 113.199C205.188 113.044 204.879 112.966 204.527 112.966C204.16 112.966 203.834 113.051 203.55 113.222C203.269 113.388 203.05 113.614 202.891 113.898C202.732 114.178 202.65 114.491 202.646 114.835V116.261C202.646 116.693 202.726 117.066 202.885 117.381C203.048 117.695 203.277 117.938 203.572 118.108C203.868 118.278 204.218 118.364 204.624 118.364C204.893 118.364 205.139 118.326 205.362 118.25C205.586 118.174 205.777 118.061 205.936 117.909C206.095 117.758 206.216 117.572 206.3 117.352L208.538 117.5C208.425 118.038 208.192 118.508 207.839 118.909C207.491 119.307 207.04 119.617 206.487 119.841C205.938 120.061 205.304 120.17 204.584 120.17ZM213.385 120.142C212.722 120.142 212.122 119.972 211.584 119.631C211.05 119.286 210.625 118.78 210.311 118.114C210 117.443 209.845 116.621 209.845 115.648C209.845 114.648 210.006 113.816 210.328 113.153C210.65 112.487 211.078 111.989 211.612 111.659C212.15 111.326 212.739 111.159 213.379 111.159C213.868 111.159 214.275 111.242 214.601 111.409C214.93 111.572 215.196 111.777 215.396 112.023C215.601 112.265 215.756 112.504 215.862 112.739H215.936V108.364H218.351V120H215.964V118.602H215.862C215.749 118.845 215.588 119.085 215.379 119.324C215.175 119.559 214.908 119.754 214.578 119.909C214.252 120.064 213.855 120.142 213.385 120.142ZM214.152 118.216C214.542 118.216 214.872 118.11 215.141 117.898C215.413 117.682 215.622 117.381 215.766 116.994C215.913 116.608 215.987 116.155 215.987 115.636C215.987 115.117 215.915 114.667 215.771 114.284C215.627 113.902 215.419 113.606 215.146 113.398C214.874 113.189 214.542 113.085 214.152 113.085C213.754 113.085 213.419 113.193 213.146 113.409C212.874 113.625 212.667 113.924 212.527 114.307C212.387 114.689 212.317 115.133 212.317 115.636C212.317 116.144 212.387 116.593 212.527 116.983C212.671 117.369 212.877 117.672 213.146 117.892C213.419 118.108 213.754 118.216 214.152 118.216Z" fill="white"/>
<path d="M239.568 110.392V108.364H249.125V110.392H245.562V120H243.131V110.392H239.568ZM253.074 114.955V120H250.653V108.364H253.006V112.812H253.108C253.305 112.297 253.623 111.894 254.062 111.602C254.502 111.307 255.053 111.159 255.716 111.159C256.322 111.159 256.85 111.292 257.301 111.557C257.756 111.818 258.108 112.195 258.358 112.688C258.612 113.176 258.737 113.761 258.733 114.443V120H256.312V114.875C256.316 114.337 256.18 113.919 255.903 113.619C255.631 113.32 255.248 113.17 254.756 113.17C254.426 113.17 254.134 113.241 253.881 113.381C253.631 113.521 253.434 113.725 253.29 113.994C253.15 114.259 253.078 114.58 253.074 114.955ZM266.234 116.284V111.273H268.655V120H266.331V118.415H266.24C266.043 118.926 265.715 119.337 265.257 119.648C264.803 119.958 264.248 120.114 263.592 120.114C263.009 120.114 262.496 119.981 262.053 119.716C261.609 119.451 261.263 119.074 261.013 118.585C260.767 118.097 260.642 117.511 260.638 116.83V111.273H263.058V116.398C263.062 116.913 263.2 117.32 263.473 117.619C263.746 117.919 264.111 118.068 264.57 118.068C264.861 118.068 265.134 118.002 265.388 117.869C265.642 117.733 265.846 117.532 266.001 117.267C266.161 117.002 266.238 116.674 266.234 116.284Z" fill="white"/>
<path d="M290.011 120V108.364H297.716V110.392H292.472V113.165H297.205V115.193H292.472V120H290.011ZM299.185 120V111.273H301.531V112.795H301.622C301.781 112.254 302.048 111.845 302.423 111.568C302.798 111.288 303.23 111.148 303.719 111.148C303.84 111.148 303.971 111.155 304.111 111.17C304.251 111.186 304.374 111.206 304.48 111.233V113.381C304.366 113.347 304.209 113.316 304.009 113.29C303.808 113.263 303.624 113.25 303.457 113.25C303.101 113.25 302.783 113.328 302.503 113.483C302.226 113.634 302.007 113.847 301.844 114.119C301.685 114.392 301.605 114.706 301.605 115.062V120H299.185ZM305.732 120V111.273H308.152V120H305.732ZM306.947 110.148C306.588 110.148 306.279 110.028 306.021 109.79C305.768 109.547 305.641 109.258 305.641 108.92C305.641 108.587 305.768 108.301 306.021 108.062C306.279 107.82 306.588 107.699 306.947 107.699C307.307 107.699 307.614 107.82 307.868 108.062C308.125 108.301 308.254 108.587 308.254 108.92C308.254 109.258 308.125 109.547 307.868 109.79C307.614 110.028 307.307 110.148 306.947 110.148Z" fill="white"/>
<path d="M347.324 111.71C347.278 111.252 347.083 110.896 346.739 110.642C346.394 110.388 345.926 110.261 345.335 110.261C344.934 110.261 344.595 110.318 344.318 110.432C344.042 110.542 343.83 110.695 343.682 110.892C343.538 111.089 343.466 111.312 343.466 111.562C343.458 111.771 343.502 111.953 343.597 112.108C343.695 112.263 343.83 112.398 344 112.511C344.17 112.621 344.367 112.718 344.591 112.801C344.814 112.881 345.053 112.949 345.307 113.006L346.352 113.256C346.86 113.369 347.326 113.521 347.75 113.71C348.174 113.9 348.542 114.133 348.852 114.409C349.163 114.686 349.403 115.011 349.574 115.386C349.748 115.761 349.837 116.191 349.841 116.676C349.837 117.388 349.655 118.006 349.295 118.528C348.939 119.047 348.424 119.451 347.75 119.739C347.08 120.023 346.271 120.165 345.324 120.165C344.384 120.165 343.566 120.021 342.869 119.733C342.176 119.445 341.634 119.019 341.244 118.455C340.858 117.886 340.655 117.184 340.636 116.347H343.017C343.044 116.737 343.155 117.062 343.352 117.324C343.553 117.581 343.82 117.777 344.153 117.909C344.491 118.038 344.871 118.102 345.295 118.102C345.712 118.102 346.074 118.042 346.381 117.92C346.691 117.799 346.932 117.631 347.102 117.415C347.273 117.199 347.358 116.951 347.358 116.67C347.358 116.409 347.28 116.189 347.125 116.011C346.973 115.833 346.75 115.682 346.455 115.557C346.163 115.432 345.805 115.318 345.381 115.216L344.114 114.898C343.133 114.659 342.358 114.286 341.79 113.778C341.222 113.271 340.939 112.587 340.943 111.727C340.939 111.023 341.127 110.407 341.506 109.881C341.888 109.354 342.413 108.943 343.08 108.648C343.746 108.352 344.504 108.205 345.352 108.205C346.216 108.205 346.97 108.352 347.614 108.648C348.261 108.943 348.765 109.354 349.125 109.881C349.485 110.407 349.67 111.017 349.682 111.71H347.324ZM353.939 120.165C353.382 120.165 352.886 120.068 352.45 119.875C352.015 119.678 351.67 119.388 351.416 119.006C351.166 118.619 351.041 118.138 351.041 117.562C351.041 117.078 351.13 116.67 351.308 116.341C351.486 116.011 351.729 115.746 352.036 115.545C352.342 115.345 352.691 115.193 353.081 115.091C353.475 114.989 353.888 114.917 354.32 114.875C354.827 114.822 355.236 114.773 355.547 114.727C355.857 114.678 356.083 114.606 356.223 114.511C356.363 114.417 356.433 114.277 356.433 114.091V114.057C356.433 113.697 356.32 113.419 356.092 113.222C355.869 113.025 355.551 112.926 355.138 112.926C354.702 112.926 354.356 113.023 354.098 113.216C353.84 113.405 353.67 113.644 353.587 113.932L351.348 113.75C351.462 113.22 351.685 112.761 352.018 112.375C352.352 111.985 352.782 111.686 353.308 111.477C353.839 111.265 354.452 111.159 355.149 111.159C355.634 111.159 356.098 111.216 356.541 111.33C356.988 111.443 357.384 111.619 357.729 111.858C358.077 112.097 358.352 112.403 358.553 112.778C358.753 113.15 358.854 113.595 358.854 114.114V120H356.558V118.79H356.49C356.35 119.062 356.162 119.303 355.928 119.511C355.693 119.716 355.411 119.877 355.081 119.994C354.751 120.108 354.371 120.165 353.939 120.165ZM354.632 118.494C354.988 118.494 355.303 118.424 355.575 118.284C355.848 118.14 356.062 117.947 356.217 117.705C356.373 117.462 356.45 117.187 356.45 116.881V115.955C356.375 116.004 356.27 116.049 356.138 116.091C356.009 116.129 355.863 116.165 355.7 116.199C355.537 116.229 355.375 116.258 355.212 116.284C355.049 116.307 354.901 116.328 354.768 116.347C354.484 116.388 354.236 116.455 354.024 116.545C353.812 116.636 353.647 116.759 353.53 116.915C353.412 117.066 353.354 117.256 353.354 117.483C353.354 117.812 353.473 118.064 353.712 118.239C353.954 118.409 354.261 118.494 354.632 118.494ZM365.374 111.273V113.091H360.118V111.273H365.374ZM361.311 109.182H363.732V117.318C363.732 117.542 363.766 117.716 363.834 117.841C363.902 117.962 363.997 118.047 364.118 118.097C364.243 118.146 364.387 118.17 364.55 118.17C364.663 118.17 364.777 118.161 364.891 118.142C365.004 118.119 365.091 118.102 365.152 118.091L365.533 119.892C365.411 119.93 365.241 119.973 365.021 120.023C364.802 120.076 364.535 120.108 364.22 120.119C363.637 120.142 363.125 120.064 362.686 119.886C362.25 119.708 361.911 119.432 361.669 119.057C361.427 118.682 361.307 118.208 361.311 117.636V109.182Z" fill="white"/>
</svg>
