<svg width="336" height="336" viewBox="0 0 336 336" fill="none" xmlns="http://www.w3.org/2000/svg">
<path d="M336 0H0V336H336V0Z" fill="white"/>
<path d="M141.12 44.352V40.32C141.12 41.3894 140.695 42.4149 139.939 43.1711C139.183 43.9272 138.157 44.352 137.088 44.352" fill="black"/>
<path d="M147.84 33.6H145.152C144.083 33.6 143.057 34.0248 142.301 34.7809C141.545 35.5371 141.12 36.5626 141.12 37.632V44.352H151.872V37.632C151.872 36.5626 151.447 35.5371 150.691 34.7809C149.935 34.0248 148.909 33.6 147.84 33.6Z" fill="black"/>
<path d="M201.6 33.6H198.912C196.685 33.6 194.88 35.4052 194.88 37.632V40.32C194.88 42.5468 196.685 44.352 198.912 44.352H201.6C203.827 44.352 205.632 42.5468 205.632 40.32V37.632C205.632 35.4052 203.827 33.6 201.6 33.6Z" fill="black"/>
<path d="M130.368 44.352H123.648C122.579 44.352 121.553 44.7768 120.797 45.5329C120.041 46.2891 119.616 47.3146 119.616 48.384V55.104H130.368V44.352Z" fill="black"/>
<path d="M141.12 44.352H130.368V55.104H141.12V44.352Z" fill="black"/>
<path d="M147.84 55.104H141.12V44.352H151.872V51.072C151.872 52.1413 151.447 53.1669 150.691 53.9231C149.935 54.6792 148.909 55.104 147.84 55.104Z" fill="black"/>
<path d="M173.376 48.384V51.072C173.376 52.1413 173.801 53.1669 174.557 53.9231C175.313 54.6792 176.339 55.104 177.408 55.104H184.128V44.352H177.408C176.339 44.352 175.313 44.7768 174.557 45.5329C173.801 46.2891 173.376 47.3146 173.376 48.384Z" fill="black"/>
<path d="M194.88 51.072V48.384C194.88 47.3146 194.455 46.2891 193.699 45.5329C192.943 44.7768 191.917 44.352 190.848 44.352H184.128V55.104H190.848C191.917 55.104 192.943 54.6792 193.699 53.9231C194.455 53.1669 194.88 52.1413 194.88 51.072Z" fill="black"/>
<path d="M205.632 55.104V51.072C205.632 52.1413 205.207 53.1669 204.451 53.9231C203.695 54.6792 202.669 55.104 201.6 55.104" fill="black"/>
<path d="M212.352 44.352H209.664C208.595 44.352 207.569 44.7768 206.813 45.5329C206.057 46.2891 205.632 47.3146 205.632 48.384V55.104H216.384V48.384C216.384 47.3146 215.959 46.2891 215.203 45.5329C214.447 44.7768 213.421 44.352 212.352 44.352Z" fill="black"/>
<path d="M119.616 61.824C119.616 62.8934 120.041 63.9189 120.797 64.675C121.553 65.4312 122.579 65.856 123.648 65.856H126.336C127.405 65.856 128.431 65.4312 129.187 64.675C129.943 63.9189 130.368 62.8934 130.368 61.824V55.104H119.616V61.824Z" fill="black"/>
<path d="M130.368 55.104V59.136C130.368 58.0667 130.793 57.0411 131.549 56.2849C132.305 55.5288 133.331 55.104 134.4 55.104" fill="black"/>
<path d="M205.632 55.104H198.912C197.843 55.104 196.817 55.5288 196.061 56.2849C195.305 57.0411 194.88 58.0667 194.88 59.136V65.856H205.632V55.104Z" fill="black"/>
<path d="M216.384 55.104H205.632V65.856H216.384V55.104Z" fill="black"/>
<path d="M130.368 76.608V72.576C130.368 73.6453 129.943 74.6709 129.187 75.4271C128.431 76.1832 127.405 76.608 126.336 76.608" fill="black"/>
<path d="M137.088 65.856H134.4C133.331 65.856 132.305 66.2808 131.549 67.0369C130.793 67.7931 130.368 68.8186 130.368 69.888V76.608H141.12V69.888C141.12 68.8186 140.695 67.7931 139.939 67.0369C139.183 66.2808 138.157 65.856 137.088 65.856Z" fill="black"/>
<path d="M145.152 76.608C144.083 76.608 143.057 76.1832 142.301 75.4271C141.545 74.6709 141.12 73.6453 141.12 72.576V76.608" fill="black"/>
<path d="M169.344 65.856H166.656C165.587 65.856 164.561 66.2808 163.805 67.0369C163.049 67.7931 162.624 68.8186 162.624 69.888V76.608H173.376V69.888C173.376 68.8186 172.951 67.7931 172.195 67.0369C171.439 66.2808 170.413 65.856 169.344 65.856Z" fill="black"/>
<path d="M177.408 76.608C176.339 76.608 175.313 76.1832 174.557 75.4271C173.801 74.6709 173.376 73.6453 173.376 72.576L173.376 76.608" fill="black"/>
<path d="M198.912 76.608H205.632V65.856H194.88V72.576C194.88 73.6454 195.305 74.6709 196.061 75.4271C196.817 76.1832 197.843 76.608 198.912 76.608Z" fill="black"/>
<path d="M216.384 65.856H205.632V76.608H216.384V65.856Z" fill="black"/>
<path d="M130.368 76.608H123.648C122.579 76.608 121.553 77.0328 120.797 77.7889C120.041 78.5451 119.616 79.5706 119.616 80.64V87.36H130.368V76.608Z" fill="black"/>
<path d="M141.12 76.608H130.368V87.36H141.12V76.608Z" fill="black"/>
<path d="M141.12 76.608H147.84C148.909 76.608 149.935 77.0328 150.691 77.7889C151.447 78.5451 151.872 79.5706 151.872 80.64V87.36H141.12V76.608Z" fill="black"/>
<path d="M173.376 76.608H162.624V87.36H173.376V76.608Z" fill="black"/>
<path d="M184.128 76.608H173.376V87.36H184.128V76.608Z" fill="black"/>
<path d="M194.88 83.328V80.64C194.88 79.5706 194.455 78.5451 193.699 77.7889C192.943 77.0328 191.917 76.608 190.848 76.608H184.128V87.36H190.848C191.917 87.36 192.943 86.9352 193.699 86.1791C194.455 85.4229 194.88 84.3974 194.88 83.328Z" fill="black"/>
<path d="M201.6 76.608C202.669 76.608 203.695 77.0328 204.451 77.7889C205.207 78.5451 205.632 79.5706 205.632 80.64V76.608" fill="black"/>
<path d="M205.632 80.64V83.328C205.632 84.3974 206.057 85.4229 206.813 86.1791C207.569 86.9352 208.595 87.36 209.664 87.36H212.352C213.421 87.36 214.447 86.9352 215.203 86.1791C215.959 85.4229 216.384 84.3974 216.384 83.328V76.608H205.632V80.64Z" fill="black"/>
<path d="M130.368 87.36H119.616V98.112H130.368V87.36Z" fill="black"/>
<path d="M130.368 87.36V91.392C130.368 90.3226 130.793 89.2971 131.549 88.5409C132.305 87.7848 133.331 87.36 134.4 87.36" fill="black"/>
<path d="M137.088 87.36C138.157 87.36 139.183 87.7848 139.939 88.5409C140.695 89.2971 141.12 90.3226 141.12 91.392V87.36" fill="black"/>
<path d="M151.872 87.36H141.12V98.112H151.872V87.36Z" fill="black"/>
<path d="M173.376 87.36H162.624V98.112H173.376V87.36Z" fill="black"/>
<path d="M173.376 87.36L173.376 91.392C173.376 90.3226 173.801 89.2971 174.557 88.5409C175.313 87.7848 176.339 87.36 177.408 87.36" fill="black"/>
<path d="M201.6 87.36H198.912C196.685 87.36 194.88 89.1652 194.88 91.392V94.08C194.88 96.3068 196.685 98.112 198.912 98.112H201.6C203.827 98.112 205.632 96.3068 205.632 94.08V91.392C205.632 89.1652 203.827 87.36 201.6 87.36Z" fill="black"/>
<path d="M130.368 98.112H119.616V108.864H130.368V98.112Z" fill="black"/>
<path d="M151.872 98.112H141.12V108.864H151.872V98.112Z" fill="black"/>
<path d="M155.904 108.864C154.835 108.864 153.809 108.439 153.053 107.683C152.297 106.927 151.872 105.901 151.872 104.832V108.864" fill="black"/>
<path d="M162.624 104.832C162.624 105.901 163.049 106.927 163.805 107.683C164.561 108.439 165.587 108.864 166.656 108.864H169.344C170.413 108.864 171.439 108.439 172.195 107.683C172.951 106.927 173.376 105.901 173.376 104.832V98.112H162.624V104.832Z" fill="black"/>
<path d="M190.848 98.112H188.16C185.933 98.112 184.128 99.9172 184.128 102.144V104.832C184.128 107.059 185.933 108.864 188.16 108.864H190.848C193.075 108.864 194.88 107.059 194.88 104.832V102.144C194.88 99.9172 193.075 98.112 190.848 98.112Z" fill="black"/>
<path d="M212.352 98.112H209.664C207.437 98.112 205.632 99.9172 205.632 102.144V104.832C205.632 107.059 207.437 108.864 209.664 108.864H212.352C214.579 108.864 216.384 107.059 216.384 104.832V102.144C216.384 99.9172 214.579 98.112 212.352 98.112Z" fill="black"/>
<path d="M119.616 115.584C119.616 116.653 120.041 117.679 120.797 118.435C121.553 119.191 122.579 119.616 123.648 119.616H126.336C127.405 119.616 128.431 119.191 129.187 118.435C129.943 117.679 130.368 116.653 130.368 115.584V108.864H119.616V115.584Z" fill="black"/>
<path d="M145.152 119.616H151.872V108.864H141.12V115.584C141.12 116.653 141.545 117.679 142.301 118.435C143.057 119.191 144.083 119.616 145.152 119.616Z" fill="black"/>
<path d="M151.872 108.864L158.592 108.864C159.661 108.864 160.687 109.289 161.443 110.045C162.199 110.801 162.624 111.827 162.624 112.896V119.616H151.872V108.864Z" fill="black"/>
<path d="M166.656 119.616C165.587 119.616 164.561 119.191 163.805 118.435C163.049 117.679 162.624 116.653 162.624 115.584V119.616" fill="black"/>
<path d="M33.6 123.648V126.336C33.6 127.405 34.0248 128.431 34.7809 129.187C35.5371 129.943 36.5626 130.368 37.632 130.368H44.352V119.616H37.632C36.5626 119.616 35.5371 120.041 34.7809 120.797C34.0248 121.553 33.6 122.579 33.6 123.648Z" fill="black"/>
<path d="M55.104 126.336V123.648C55.104 122.579 54.6792 121.553 53.9231 120.797C53.1669 120.041 52.1413 119.616 51.072 119.616H44.352V130.368H51.072C52.1413 130.368 53.1669 129.943 53.9231 129.187C54.6792 128.431 55.104 127.405 55.104 126.336Z" fill="black"/>
<path d="M65.856 130.368V126.336C65.856 127.405 65.4312 128.431 64.675 129.187C63.9189 129.943 62.8934 130.368 61.824 130.368" fill="black"/>
<path d="M72.576 119.616H69.888C68.8186 119.616 67.7931 120.041 67.0369 120.797C66.2808 121.553 65.856 122.579 65.856 123.648L65.856 130.368H76.608V123.648C76.608 122.579 76.1832 121.553 75.4271 120.797C74.6709 120.041 73.6454 119.616 72.576 119.616Z" fill="black"/>
<path d="M80.64 130.368C79.5706 130.368 78.5451 129.943 77.7889 129.187C77.0328 128.431 76.608 127.405 76.608 126.336V130.368" fill="black"/>
<path d="M98.112 123.648V126.336C98.112 127.405 98.5368 128.431 99.2929 129.187C100.049 129.943 101.075 130.368 102.144 130.368H108.864V119.616H102.144C101.075 119.616 100.049 120.041 99.2929 120.797C98.5368 121.553 98.112 122.579 98.112 123.648Z" fill="black"/>
<path d="M108.864 119.616H115.584C116.653 119.616 117.679 120.041 118.435 120.797C119.191 121.553 119.616 122.579 119.616 123.648V130.368H108.864V119.616Z" fill="black"/>
<path d="M123.648 130.368C122.579 130.368 121.553 129.943 120.797 129.187C120.041 128.431 119.616 127.405 119.616 126.336L119.616 130.368" fill="black"/>
<path d="M147.84 119.616C148.909 119.616 149.935 120.041 150.691 120.797C151.447 121.553 151.872 122.579 151.872 123.648V119.616" fill="black"/>
<path d="M162.624 119.616H151.872V130.368H162.624V119.616Z" fill="black"/>
<path d="M173.376 119.616L162.624 119.616V130.368H173.376V119.616Z" fill="black"/>
<path d="M184.128 119.616H173.376V130.368H184.128V119.616Z" fill="black"/>
<path d="M184.128 119.616H190.848C191.917 119.616 192.943 120.041 193.699 120.797C194.455 121.553 194.88 122.579 194.88 123.648V130.368H184.128V119.616Z" fill="black"/>
<path d="M205.632 130.368V126.336C205.632 127.405 205.207 128.431 204.451 129.187C203.695 129.943 202.669 130.368 201.6 130.368" fill="black"/>
<path d="M198.912 130.368C197.843 130.368 196.817 129.943 196.061 129.187C195.305 128.431 194.88 127.405 194.88 126.336V130.368" fill="black"/>
<path d="M212.352 119.616H209.664C208.595 119.616 207.569 120.041 206.813 120.797C206.057 121.553 205.632 122.579 205.632 123.648V130.368H216.384V123.648C216.384 122.579 215.959 121.553 215.203 120.797C214.447 120.041 213.421 119.616 212.352 119.616Z" fill="black"/>
<path d="M237.888 119.616H231.168C230.099 119.616 229.073 120.041 228.317 120.797C227.561 121.553 227.136 122.579 227.136 123.648V130.368H237.888V119.616Z" fill="black"/>
<path d="M248.64 119.616H237.888V130.368H248.64V119.616Z" fill="black"/>
<path d="M248.64 119.616H255.36C256.429 119.616 257.455 120.041 258.211 120.797C258.967 121.553 259.392 122.579 259.392 123.648V130.368H248.64V119.616Z" fill="black"/>
<path d="M270.144 123.648V126.336C270.144 127.405 270.569 128.431 271.325 129.187C272.081 129.943 273.107 130.368 274.176 130.368H280.896V119.616H274.176C273.107 119.616 272.081 120.041 271.325 120.797C270.569 121.553 270.144 122.579 270.144 123.648Z" fill="black"/>
<path d="M280.896 119.616H287.616C288.685 119.616 289.711 120.041 290.467 120.797C291.223 121.553 291.648 122.579 291.648 123.648V130.368H280.896V119.616Z" fill="black"/>
<path d="M65.856 130.368H59.136C58.0667 130.368 57.0411 130.793 56.2849 131.549C55.5288 132.305 55.104 133.331 55.104 134.4V141.12H65.856V130.368Z" fill="black"/>
<path d="M76.608 130.368H65.856V141.12H76.608V130.368Z" fill="black"/>
<path d="M87.36 130.368H76.608V141.12H87.36V130.368Z" fill="black"/>
<path d="M87.36 130.368H94.08C95.1494 130.368 96.1749 130.793 96.9311 131.549C97.6872 132.305 98.112 133.331 98.112 134.4V141.12H87.36V130.368Z" fill="black"/>
<path d="M104.832 130.368C105.901 130.368 106.927 130.793 107.683 131.549C108.439 132.305 108.864 133.331 108.864 134.4V130.368" fill="black"/>
<path d="M108.864 141.12V137.088C108.864 138.157 108.439 139.183 107.683 139.939C106.927 140.695 105.901 141.12 104.832 141.12" fill="black"/>
<path d="M102.144 141.12C101.075 141.12 100.049 140.695 99.2929 139.939C98.5368 139.183 98.112 138.157 98.112 137.088V141.12" fill="black"/>
<path d="M119.616 130.368H108.864V141.12H119.616V130.368Z" fill="black"/>
<path d="M130.368 130.368H119.616V141.12H130.368V130.368Z" fill="black"/>
<path d="M141.12 137.088V134.4C141.12 133.331 140.695 132.305 139.939 131.549C139.183 130.793 138.157 130.368 137.088 130.368H130.368V141.12H137.088C138.157 141.12 139.183 140.695 139.939 139.939C140.695 139.183 141.12 138.157 141.12 137.088Z" fill="black"/>
<path d="M162.624 130.368H151.872V141.12H162.624V130.368Z" fill="black"/>
<path d="M173.376 130.368H162.624V141.12H173.376V130.368Z" fill="black"/>
<path d="M184.128 130.368H173.376V141.12H184.128V130.368Z" fill="black"/>
<path d="M194.88 130.368H184.128V141.12H194.88V130.368Z" fill="black"/>
<path d="M205.632 130.368H194.88V141.12H205.632V130.368Z" fill="black"/>
<path d="M212.352 141.12H205.632V130.368H216.384V137.088C216.384 138.157 215.959 139.183 215.203 139.939C214.447 140.695 213.421 141.12 212.352 141.12Z" fill="black"/>
<path d="M227.136 141.12V137.088C227.136 138.157 226.711 139.183 225.955 139.939C225.199 140.695 224.173 141.12 223.104 141.12" fill="black"/>
<path d="M237.888 130.368H227.136V141.12H237.888V130.368Z" fill="black"/>
<path d="M237.888 130.368L237.888 134.4C237.888 133.331 238.313 132.305 239.069 131.549C239.825 130.793 240.851 130.368 241.92 130.368" fill="black"/>
<path d="M244.608 130.368C245.677 130.368 246.703 130.793 247.459 131.549C248.215 132.305 248.64 133.331 248.64 134.4V130.368" fill="black"/>
<path d="M241.92 141.12C240.851 141.12 239.825 140.695 239.069 139.939C238.313 139.183 237.888 138.157 237.888 137.088L237.888 141.12" fill="black"/>
<path d="M248.64 134.4V137.088C248.64 138.157 249.065 139.183 249.821 139.939C250.577 140.695 251.603 141.12 252.672 141.12H255.36C256.429 141.12 257.455 140.695 258.211 139.939C258.967 139.183 259.392 138.157 259.392 137.088V130.368H248.64V134.4Z" fill="black"/>
<path d="M276.864 130.368C277.933 130.368 278.959 130.793 279.715 131.549C280.471 132.305 280.896 133.331 280.896 134.4V130.368" fill="black"/>
<path d="M280.896 134.4L280.896 137.088C280.896 138.157 281.321 139.183 282.077 139.939C282.833 140.695 283.859 141.12 284.928 141.12H287.616C288.685 141.12 289.711 140.695 290.467 139.939C291.223 139.183 291.648 138.157 291.648 137.088V130.368H280.896V134.4Z" fill="black"/>
<path d="M40.32 141.12H37.632C36.5626 141.12 35.5371 141.545 34.7809 142.301C34.0248 143.057 33.6 144.083 33.6 145.152V151.872H44.352V145.152C44.352 144.083 43.9272 143.057 43.1711 142.301C42.4149 141.545 41.3894 141.12 40.32 141.12Z" fill="black"/>
<path d="M48.384 151.872C47.3146 151.872 46.2891 151.447 45.5329 150.691C44.7768 149.935 44.352 148.909 44.352 147.84V151.872" fill="black"/>
<path d="M55.104 147.84C55.104 148.909 55.5288 149.935 56.2849 150.691C57.0411 151.447 58.0667 151.872 59.136 151.872H61.824C62.8934 151.872 63.9189 151.447 64.675 150.691C65.4312 149.935 65.856 148.909 65.856 147.84V141.12H55.104V147.84Z" fill="black"/>
<path d="M65.856 141.12L65.856 145.152C65.856 144.083 66.2808 143.057 67.0369 142.301C67.7931 141.545 68.8186 141.12 69.888 141.12" fill="black"/>
<path d="M83.328 141.12C84.3974 141.12 85.4229 141.545 86.1791 142.301C86.9352 143.057 87.36 144.083 87.36 145.152L87.36 141.12" fill="black"/>
<path d="M91.392 151.872H98.112V141.12H87.36V147.84C87.36 148.909 87.7848 149.935 88.5409 150.691C89.2971 151.447 90.3226 151.872 91.392 151.872Z" fill="black"/>
<path d="M108.864 141.12H98.112V151.872H108.864V141.12Z" fill="black"/>
<path d="M119.616 141.12H108.864V151.872H119.616V141.12Z" fill="black"/>
<path d="M119.616 141.12L119.616 145.152C119.616 144.083 120.041 143.057 120.797 142.301C121.553 141.545 122.579 141.12 123.648 141.12" fill="black"/>
<path d="M123.648 151.872C122.579 151.872 121.553 151.447 120.797 150.691C120.041 149.935 119.616 148.909 119.616 147.84L119.616 151.872" fill="black"/>
<path d="M151.872 151.872V147.84C151.872 148.909 151.447 149.935 150.691 150.691C149.935 151.447 148.909 151.872 147.84 151.872" fill="black"/>
<path d="M162.624 141.12H151.872V151.872H162.624V141.12Z" fill="black"/>
<path d="M173.376 141.12H162.624V151.872H173.376V141.12Z" fill="black"/>
<path d="M173.376 141.12L173.376 145.152C173.376 144.083 173.801 143.057 174.557 142.301C175.313 141.545 176.339 141.12 177.408 141.12" fill="black"/>
<path d="M180.096 141.12C181.165 141.12 182.191 141.545 182.947 142.301C183.703 143.057 184.128 144.083 184.128 145.152V141.12" fill="black"/>
<path d="M177.408 151.872C176.339 151.872 175.313 151.447 174.557 150.691C173.801 149.935 173.376 148.909 173.376 147.84L173.376 151.872" fill="black"/>
<path d="M184.128 145.152V147.84C184.128 148.909 184.553 149.935 185.309 150.691C186.065 151.447 187.091 151.872 188.16 151.872H190.848C191.917 151.872 192.943 151.447 193.699 150.691C194.455 149.935 194.88 148.909 194.88 147.84V141.12H184.128V145.152Z" fill="black"/>
<path d="M194.88 141.12V145.152C194.88 144.083 195.305 143.057 196.061 142.301C196.817 141.545 197.843 141.12 198.912 141.12" fill="black"/>
<path d="M216.384 151.872V147.84C216.384 148.909 215.959 149.935 215.203 150.691C214.447 151.447 213.421 151.872 212.352 151.872" fill="black"/>
<path d="M227.136 141.12H220.416C219.347 141.12 218.321 141.545 217.565 142.301C216.809 143.057 216.384 144.083 216.384 145.152L216.384 151.872H227.136V141.12Z" fill="black"/>
<path d="M237.888 141.12H227.136V151.872H237.888V141.12Z" fill="black"/>
<path d="M237.888 141.12H244.608C245.677 141.12 246.703 141.545 247.459 142.301C248.215 143.057 248.64 144.083 248.64 145.152V151.872H237.888V141.12Z" fill="black"/>
<path d="M252.672 151.872C251.603 151.872 250.577 151.447 249.821 150.691C249.065 149.935 248.64 148.909 248.64 147.84V151.872" fill="black"/>
<path d="M259.392 145.152V147.84C259.392 148.909 259.817 149.935 260.573 150.691C261.329 151.447 262.355 151.872 263.424 151.872H270.144V141.12H263.424C262.355 141.12 261.329 141.545 260.573 142.301C259.817 143.057 259.392 144.083 259.392 145.152Z" fill="black"/>
<path d="M280.896 147.84V145.152C280.896 144.083 280.471 143.057 279.715 142.301C278.959 141.545 277.933 141.12 276.864 141.12H270.144V151.872H276.864C277.933 151.872 278.959 151.447 279.715 150.691C280.471 149.935 280.896 148.909 280.896 147.84Z" fill="black"/>
<path d="M44.352 151.872H33.6V162.624H44.352V151.872Z" fill="black"/>
<path d="M55.104 158.592V155.904C55.104 154.835 54.6792 153.809 53.9231 153.053C53.1669 152.297 52.1413 151.872 51.072 151.872H44.352V162.624H51.072C52.1413 162.624 53.1669 162.199 53.9231 161.443C54.6792 160.687 55.104 159.661 55.104 158.592Z" fill="black"/>
<path d="M76.608 151.872H69.888C68.8186 151.872 67.7931 152.297 67.0369 153.053C66.2808 153.809 65.856 154.835 65.856 155.904V162.624H76.608V151.872Z" fill="black"/>
<path d="M87.36 158.592V155.904C87.36 154.835 86.9352 153.809 86.1791 153.053C85.4229 152.297 84.3974 151.872 83.328 151.872H76.608V162.624H83.328C84.3974 162.624 85.4229 162.199 86.1791 161.443C86.9352 160.687 87.36 159.661 87.36 158.592Z" fill="black"/>
<path d="M104.832 151.872C105.901 151.872 106.927 152.297 107.683 153.053C108.439 153.809 108.864 154.835 108.864 155.904V151.872" fill="black"/>
<path d="M112.896 162.624H119.616V151.872H108.864L108.864 158.592C108.864 159.661 109.289 160.687 110.045 161.443C110.801 162.199 111.827 162.624 112.896 162.624Z" fill="black"/>
<path d="M130.368 151.872H119.616V162.624H130.368V151.872Z" fill="black"/>
<path d="M141.12 151.872H130.368V162.624H141.12V151.872Z" fill="black"/>
<path d="M151.872 151.872H141.12V162.624H151.872V151.872Z" fill="black"/>
<path d="M162.624 151.872H151.872V162.624H162.624V151.872Z" fill="black"/>
<path d="M173.376 151.872H162.624V162.624H173.376V151.872Z" fill="black"/>
<path d="M173.376 151.872H180.096C181.165 151.872 182.191 152.297 182.947 153.053C183.703 153.809 184.128 154.835 184.128 155.904V162.624H173.376V151.872Z" fill="black"/>
<path d="M188.16 162.624C187.091 162.624 186.065 162.199 185.309 161.443C184.553 160.687 184.128 159.661 184.128 158.592V162.624" fill="black"/>
<path d="M216.384 151.872H209.664C208.595 151.872 207.569 152.297 206.813 153.053C206.057 153.809 205.632 154.835 205.632 155.904V162.624H216.384V151.872Z" fill="black"/>
<path d="M227.136 151.872H216.384V162.624H227.136V151.872Z" fill="black"/>
<path d="M237.888 151.872H227.136V162.624H237.888V151.872Z" fill="black"/>
<path d="M248.64 151.872H237.888V162.624H248.64V151.872Z" fill="black"/>
<path d="M259.392 158.592V155.904C259.392 154.835 258.967 153.809 258.211 153.053C257.455 152.297 256.429 151.872 255.36 151.872H248.64V162.624H255.36C256.429 162.624 257.455 162.199 258.211 161.443C258.967 160.687 259.392 159.661 259.392 158.592Z" fill="black"/>
<path d="M291.648 162.624V158.592C291.648 159.661 291.223 160.687 290.467 161.443C289.711 162.199 288.685 162.624 287.616 162.624" fill="black"/>
<path d="M298.368 151.872H295.68C294.611 151.872 293.585 152.297 292.829 153.053C292.073 153.809 291.648 154.835 291.648 155.904V162.624L302.4 162.624V155.904C302.4 154.835 301.975 153.809 301.219 153.053C300.463 152.297 299.437 151.872 298.368 151.872Z" fill="black"/>
<path d="M33.6 169.344C33.6 170.413 34.0248 171.439 34.7809 172.195C35.5371 172.951 36.5626 173.376 37.632 173.376H40.32C41.3894 173.376 42.4149 172.951 43.1711 172.195C43.9272 171.439 44.352 170.413 44.352 169.344V162.624H33.6V169.344Z" fill="black"/>
<path d="M44.352 162.624V166.656C44.352 165.587 44.7768 164.561 45.5329 163.805C46.2891 163.049 47.3146 162.624 48.384 162.624" fill="black"/>
<path d="M65.856 169.344C65.856 170.413 66.2808 171.439 67.0369 172.195C67.7931 172.951 68.8186 173.376 69.888 173.376H72.576C73.6454 173.376 74.6709 172.951 75.4271 172.195C76.1832 171.439 76.608 170.413 76.608 169.344V162.624H65.856V169.344Z" fill="black"/>
<path d="M76.608 162.624V166.656C76.608 165.587 77.0328 164.561 77.7889 163.805C78.5451 163.049 79.5706 162.624 80.64 162.624" fill="black"/>
<path d="M104.832 162.624H102.144C99.9172 162.624 98.112 164.429 98.112 166.656V169.344C98.112 171.571 99.9172 173.376 102.144 173.376H104.832C107.059 173.376 108.864 171.571 108.864 169.344V166.656C108.864 164.429 107.059 162.624 104.832 162.624Z" fill="black"/>
<path d="M115.584 162.624C116.653 162.624 117.679 163.049 118.435 163.805C119.191 164.561 119.616 165.587 119.616 166.656L119.616 162.624" fill="black"/>
<path d="M130.368 162.624H119.616L119.616 173.376H130.368V162.624Z" fill="black"/>
<path d="M130.368 162.624V166.656C130.368 165.587 130.793 164.561 131.549 163.805C132.305 163.049 133.331 162.624 134.4 162.624" fill="black"/>
<path d="M137.088 162.624C138.157 162.624 139.183 163.049 139.939 163.805C140.695 164.561 141.12 165.587 141.12 166.656V162.624" fill="black"/>
<path d="M134.4 173.376C133.331 173.376 132.305 172.951 131.549 172.195C130.793 171.439 130.368 170.413 130.368 169.344V173.376" fill="black"/>
<path d="M145.152 173.376H151.872V162.624H141.12V169.344C141.12 170.413 141.545 171.439 142.301 172.195C143.057 172.951 144.083 173.376 145.152 173.376Z" fill="black"/>
<path d="M162.624 162.624H151.872V173.376H162.624V162.624Z" fill="black"/>
<path d="M162.624 162.624V166.656C162.624 165.587 163.049 164.561 163.805 163.805C164.561 163.049 165.587 162.624 166.656 162.624" fill="black"/>
<path d="M169.344 162.624C170.413 162.624 171.439 163.049 172.195 163.805C172.951 164.561 173.376 165.587 173.376 166.656L173.376 162.624" fill="black"/>
<path d="M177.408 173.376H184.128V162.624H173.376L173.376 169.344C173.376 170.413 173.801 171.439 174.557 172.195C175.313 172.951 176.339 173.376 177.408 173.376Z" fill="black"/>
<path d="M184.128 162.624H190.848C191.917 162.624 192.943 163.049 193.699 163.805C194.455 164.561 194.88 165.587 194.88 166.656V173.376H184.128V162.624Z" fill="black"/>
<path d="M205.632 169.344C205.632 170.413 206.057 171.439 206.813 172.195C207.569 172.951 208.595 173.376 209.664 173.376H212.352C213.421 173.376 214.447 172.951 215.203 172.195C215.959 171.439 216.384 170.413 216.384 169.344V162.624H205.632V169.344Z" fill="black"/>
<path d="M216.384 162.624L216.384 166.656C216.384 165.587 216.809 164.561 217.565 163.805C218.321 163.049 219.347 162.624 220.416 162.624" fill="black"/>
<path d="M223.104 162.624C224.173 162.624 225.199 163.049 225.955 163.805C226.711 164.561 227.136 165.587 227.136 166.656V162.624" fill="black"/>
<path d="M231.168 173.376H237.888V162.624H227.136V169.344C227.136 170.413 227.561 171.439 228.317 172.195C229.073 172.951 230.099 173.376 231.168 173.376Z" fill="black"/>
<path d="M248.64 162.624H237.888V173.376H248.64V162.624Z" fill="black"/>
<path d="M248.64 162.624V166.656C248.64 165.587 249.065 164.561 249.821 163.805C250.577 163.049 251.603 162.624 252.672 162.624" fill="black"/>
<path d="M252.672 173.376C251.603 173.376 250.577 172.951 249.821 172.195C249.065 171.439 248.64 170.413 248.64 169.344V173.376" fill="black"/>
<path d="M280.896 162.624H274.176C273.107 162.624 272.081 163.049 271.325 163.805C270.569 164.561 270.144 165.587 270.144 166.656V173.376H280.896V162.624Z" fill="black"/>
<path d="M291.648 162.624L280.896 162.624V173.376H291.648L291.648 162.624Z" fill="black"/>
<path d="M302.4 162.624L291.648 162.624L291.648 173.376H302.4V162.624Z" fill="black"/>
<path d="M61.824 173.376H59.136C56.9092 173.376 55.104 175.181 55.104 177.408V180.096C55.104 182.323 56.9092 184.128 59.136 184.128H61.824C64.0508 184.128 65.856 182.323 65.856 180.096V177.408C65.856 175.181 64.0508 173.376 61.824 173.376Z" fill="black"/>
<path d="M130.368 173.376H119.616V184.128H130.368V173.376Z" fill="black"/>
<path d="M141.12 180.096V177.408C141.12 176.339 140.695 175.313 139.939 174.557C139.183 173.801 138.157 173.376 137.088 173.376L130.368 173.376V184.128H137.088C138.157 184.128 139.183 183.703 139.939 182.947C140.695 182.191 141.12 181.165 141.12 180.096Z" fill="black"/>
<path d="M147.84 173.376C148.909 173.376 149.935 173.801 150.691 174.557C151.447 175.313 151.872 176.339 151.872 177.408V173.376" fill="black"/>
<path d="M151.872 184.128V180.096C151.872 181.165 151.447 182.191 150.691 182.947C149.935 183.703 148.909 184.128 147.84 184.128" fill="black"/>
<path d="M162.624 173.376H151.872V184.128H162.624V173.376Z" fill="black"/>
<path d="M180.096 173.376C181.165 173.376 182.191 173.801 182.947 174.557C183.703 175.313 184.128 176.339 184.128 177.408V173.376" fill="black"/>
<path d="M194.88 173.376H184.128V184.128H194.88V173.376Z" fill="black"/>
<path d="M198.912 184.128C197.843 184.128 196.817 183.703 196.061 182.947C195.305 182.191 194.88 181.165 194.88 180.096V184.128" fill="black"/>
<path d="M233.856 173.376C234.925 173.376 235.951 173.801 236.707 174.557C237.463 175.313 237.888 176.339 237.888 177.408L237.888 173.376" fill="black"/>
<path d="M241.92 184.128H248.64V173.376H237.888L237.888 180.096C237.888 181.165 238.313 182.191 239.069 182.947C239.825 183.703 240.851 184.128 241.92 184.128Z" fill="black"/>
<path d="M248.64 173.376L255.36 173.376C256.429 173.376 257.455 173.801 258.211 174.557C258.967 175.313 259.392 176.339 259.392 177.408V184.128H248.64V173.376Z" fill="black"/>
<path d="M263.424 184.128C262.355 184.128 261.329 183.703 260.573 182.947C259.817 182.191 259.392 181.165 259.392 180.096L259.392 184.128" fill="black"/>
<path d="M274.176 184.128H280.896V173.376H270.144V180.096C270.144 181.165 270.569 182.191 271.325 182.947C272.081 183.703 273.107 184.128 274.176 184.128Z" fill="black"/>
<path d="M291.648 173.376H280.896V184.128H291.648V173.376Z" fill="black"/>
<path d="M302.4 173.376H291.648V184.128H302.4V173.376Z" fill="black"/>
<path d="M40.32 184.128H37.632C35.4052 184.128 33.6 185.933 33.6 188.16V190.848C33.6 193.075 35.4052 194.88 37.632 194.88H40.32C42.5468 194.88 44.352 193.075 44.352 190.848V188.16C44.352 185.933 42.5468 184.128 40.32 184.128Z" fill="black"/>
<path d="M65.856 194.88V190.848C65.856 191.917 65.4312 192.943 64.675 193.699C63.9189 194.455 62.8934 194.88 61.824 194.88" fill="black"/>
<path d="M76.608 184.128H69.888C68.8186 184.128 67.7931 184.553 67.0369 185.309C66.2808 186.065 65.856 187.091 65.856 188.16L65.856 194.88H76.608V184.128Z" fill="black"/>
<path d="M87.36 184.128H76.608V194.88H87.36V184.128Z" fill="black"/>
<path d="M98.112 184.128H87.36V194.88H98.112V184.128Z" fill="black"/>
<path d="M108.864 190.848V188.16C108.864 187.091 108.439 186.065 107.683 185.309C106.927 184.553 105.901 184.128 104.832 184.128H98.112V194.88H104.832C105.901 194.88 106.927 194.455 107.683 193.699C108.439 192.943 108.864 191.917 108.864 190.848Z" fill="black"/>
<path d="M119.616 194.88V190.848C119.616 191.917 119.191 192.943 118.435 193.699C117.679 194.455 116.653 194.88 115.584 194.88" fill="black"/>
<path d="M130.368 184.128H119.616L119.616 194.88H130.368V184.128Z" fill="black"/>
<path d="M130.368 184.128V188.16C130.368 187.091 130.793 186.065 131.549 185.309C132.305 184.553 133.331 184.128 134.4 184.128" fill="black"/>
<path d="M141.12 188.16V190.848C141.12 191.917 141.545 192.943 142.301 193.699C143.057 194.455 144.083 194.88 145.152 194.88H151.872V184.128H145.152C144.083 184.128 143.057 184.553 142.301 185.309C141.545 186.065 141.12 187.091 141.12 188.16Z" fill="black"/>
<path d="M162.624 184.128H151.872V194.88H162.624V184.128Z" fill="black"/>
<path d="M188.16 194.88H194.88V184.128H184.128V190.848C184.128 191.917 184.553 192.943 185.309 193.699C186.065 194.455 187.091 194.88 188.16 194.88Z" fill="black"/>
<path d="M205.632 184.128H194.88V194.88H205.632V184.128Z" fill="black"/>
<path d="M216.384 190.848V188.16C216.384 187.091 215.959 186.065 215.203 185.309C214.447 184.553 213.421 184.128 212.352 184.128H205.632V194.88H212.352C213.421 194.88 214.447 194.455 215.203 193.699C215.959 192.943 216.384 191.917 216.384 190.848Z" fill="black"/>
<path d="M233.856 184.128H231.168C230.099 184.128 229.073 184.553 228.317 185.309C227.561 186.065 227.136 187.091 227.136 188.16V194.88H237.888V188.16C237.888 187.091 237.463 186.065 236.707 185.309C235.951 184.553 234.925 184.128 233.856 184.128Z" fill="black"/>
<path d="M244.608 184.128C245.677 184.128 246.703 184.553 247.459 185.309C248.215 186.065 248.64 187.091 248.64 188.16V184.128" fill="black"/>
<path d="M241.92 194.88C240.851 194.88 239.825 194.455 239.069 193.699C238.313 192.943 237.888 191.917 237.888 190.848L237.888 194.88" fill="black"/>
<path d="M252.672 194.88H259.392V184.128H248.64V190.848C248.64 191.917 249.065 192.943 249.821 193.699C250.577 194.455 251.603 194.88 252.672 194.88Z" fill="black"/>
<path d="M270.144 190.848V188.16C270.144 187.091 269.719 186.065 268.963 185.309C268.207 184.553 267.181 184.128 266.112 184.128H259.392V194.88H266.112C267.181 194.88 268.207 194.455 268.963 193.699C269.719 192.943 270.144 191.917 270.144 190.848Z" fill="black"/>
<path d="M287.616 184.128C288.685 184.128 289.711 184.553 290.467 185.309C291.223 186.065 291.648 187.091 291.648 188.16L291.648 184.128" fill="black"/>
<path d="M291.648 188.16V190.848C291.648 191.917 292.073 192.943 292.829 193.699C293.585 194.455 294.611 194.88 295.68 194.88H298.368C299.437 194.88 300.463 194.455 301.219 193.699C301.975 192.943 302.4 191.917 302.4 190.848V184.128H291.648L291.648 188.16Z" fill="black"/>
<path d="M44.352 205.632V201.6C44.352 202.669 43.9272 203.695 43.1711 204.451C42.4149 205.207 41.3894 205.632 40.32 205.632" fill="black"/>
<path d="M55.104 194.88H48.384C47.3146 194.88 46.2891 195.305 45.5329 196.061C44.7768 196.817 44.352 197.843 44.352 198.912V205.632H55.104V194.88Z" fill="black"/>
<path d="M65.856 194.88H55.104V205.632H65.856V194.88Z" fill="black"/>
<path d="M76.608 194.88H65.856V205.632H76.608V194.88Z" fill="black"/>
<path d="M87.36 194.88H76.608V205.632H87.36V194.88Z" fill="black"/>
<path d="M98.112 194.88H87.36V205.632H98.112V194.88Z" fill="black"/>
<path d="M98.112 194.88V198.912C98.112 197.843 98.5368 196.817 99.2929 196.061C100.049 195.305 101.075 194.88 102.144 194.88" fill="black"/>
<path d="M108.864 205.632V201.6C108.864 202.669 108.439 203.695 107.683 204.451C106.927 205.207 105.901 205.632 104.832 205.632" fill="black"/>
<path d="M102.144 205.632C101.075 205.632 100.049 205.207 99.2929 204.451C98.5368 203.695 98.112 202.669 98.112 201.6V205.632" fill="black"/>
<path d="M119.616 194.88H112.896C111.827 194.88 110.801 195.305 110.045 196.061C109.289 196.817 108.864 197.843 108.864 198.912L108.864 205.632H119.616L119.616 194.88Z" fill="black"/>
<path d="M126.336 205.632H119.616L119.616 194.88H130.368V201.6C130.368 202.669 129.943 203.695 129.187 204.451C128.431 205.207 127.405 205.632 126.336 205.632Z" fill="black"/>
<path d="M147.84 194.88C148.909 194.88 149.935 195.305 150.691 196.061C151.447 196.817 151.872 197.843 151.872 198.912V194.88" fill="black"/>
<path d="M151.872 198.912V201.6C151.872 202.669 152.297 203.695 153.053 204.451C153.809 205.207 154.835 205.632 155.904 205.632H158.592C159.661 205.632 160.687 205.207 161.443 204.451C162.199 203.695 162.624 202.669 162.624 201.6V194.88H151.872V198.912Z" fill="black"/>
<path d="M173.376 205.632V201.6C173.376 202.669 172.951 203.695 172.195 204.451C171.439 205.207 170.413 205.632 169.344 205.632" fill="black"/>
<path d="M180.096 194.88H177.408C176.339 194.88 175.313 195.305 174.557 196.061C173.801 196.817 173.376 197.843 173.376 198.912V205.632H184.128V198.912C184.128 197.843 183.703 196.817 182.947 196.061C182.191 195.305 181.165 194.88 180.096 194.88Z" fill="black"/>
<path d="M227.136 205.632V201.6C227.136 202.669 226.711 203.695 225.955 204.451C225.199 205.207 224.173 205.632 223.104 205.632" fill="black"/>
<path d="M237.888 194.88H227.136V205.632H237.888V194.88Z" fill="black"/>
<path d="M237.888 194.88H244.608C245.677 194.88 246.703 195.305 247.459 196.061C248.215 196.817 248.64 197.843 248.64 198.912V205.632H237.888V194.88Z" fill="black"/>
<path d="M252.672 205.632C251.603 205.632 250.577 205.207 249.821 204.451C249.065 203.695 248.64 202.669 248.64 201.6V205.632" fill="black"/>
<path d="M33.6 209.664V212.352C33.6 213.421 34.0248 214.447 34.7809 215.203C35.5371 215.959 36.5626 216.384 37.632 216.384H44.352V205.632H37.632C36.5626 205.632 35.5371 206.057 34.7809 206.813C34.0248 207.569 33.6 208.595 33.6 209.664Z" fill="black"/>
<path d="M55.104 205.632H44.352V216.384H55.104V205.632Z" fill="black"/>
<path d="M61.824 216.384H55.104V205.632H65.856V212.352C65.856 213.421 65.4312 214.447 64.675 215.203C63.9189 215.959 62.8934 216.384 61.824 216.384Z" fill="black"/>
<path d="M65.856 205.632L65.856 209.664C65.856 208.595 66.2808 207.569 67.0369 206.813C67.7931 206.057 68.8186 205.632 69.888 205.632" fill="black"/>
<path d="M72.576 205.632C73.6453 205.632 74.6709 206.057 75.4271 206.813C76.1832 207.569 76.608 208.595 76.608 209.664V205.632" fill="black"/>
<path d="M80.64 216.384H87.36V205.632H76.608V212.352C76.608 213.421 77.0328 214.447 77.7889 215.203C78.5451 215.959 79.5706 216.384 80.64 216.384Z" fill="black"/>
<path d="M98.112 205.632H87.36V216.384H98.112V205.632Z" fill="black"/>
<path d="M108.864 205.632H98.112V216.384H108.864V205.632Z" fill="black"/>
<path d="M115.584 216.384H108.864V205.632H119.616V212.352C119.616 213.421 119.191 214.447 118.435 215.203C117.679 215.959 116.653 216.384 115.584 216.384Z" fill="black"/>
<path d="M119.616 205.632L119.616 209.664C119.616 208.595 120.041 207.569 120.797 206.813C121.553 206.057 122.579 205.632 123.648 205.632" fill="black"/>
<path d="M130.368 209.664V212.352C130.368 213.421 130.793 214.447 131.549 215.203C132.305 215.959 133.331 216.384 134.4 216.384H141.12V205.632H134.4C133.331 205.632 132.305 206.057 131.549 206.813C130.793 207.569 130.368 208.595 130.368 209.664Z" fill="black"/>
<path d="M151.872 212.352V209.664C151.872 208.595 151.447 207.569 150.691 206.813C149.935 206.057 148.909 205.632 147.84 205.632H141.12V216.384H147.84C148.909 216.384 149.935 215.959 150.691 215.203C151.447 214.447 151.872 213.421 151.872 212.352Z" fill="black"/>
<path d="M173.376 205.632H166.656C165.587 205.632 164.561 206.057 163.805 206.813C163.049 207.569 162.624 208.595 162.624 209.664V216.384H173.376L173.376 205.632Z" fill="black"/>
<path d="M184.128 205.632H173.376L173.376 216.384H184.128V205.632Z" fill="black"/>
<path d="M216.384 205.632H209.664C208.595 205.632 207.569 206.057 206.813 206.813C206.057 207.569 205.632 208.595 205.632 209.664V216.384H216.384V205.632Z" fill="black"/>
<path d="M227.136 205.632H216.384V216.384H227.136V205.632Z" fill="black"/>
<path d="M237.888 205.632H227.136V216.384H237.888V205.632Z" fill="black"/>
<path d="M248.64 205.632H237.888V216.384H248.64V205.632Z" fill="black"/>
<path d="M248.64 205.632H255.36C256.429 205.632 257.455 206.057 258.211 206.813C258.967 207.569 259.392 208.595 259.392 209.664V216.384H248.64V205.632Z" fill="black"/>
<path d="M298.368 205.632H295.68C293.453 205.632 291.648 207.437 291.648 209.664V212.352C291.648 214.579 293.453 216.384 295.68 216.384H298.368C300.595 216.384 302.4 214.579 302.4 212.352V209.664C302.4 207.437 300.595 205.632 298.368 205.632Z" fill="black"/>
<path d="M126.336 216.384H123.648C122.579 216.384 121.553 216.809 120.797 217.565C120.041 218.321 119.616 219.347 119.616 220.416V227.136H130.368V220.416C130.368 219.347 129.943 218.321 129.187 217.565C128.431 216.809 127.405 216.384 126.336 216.384Z" fill="black"/>
<path d="M134.4 227.136C133.331 227.136 132.305 226.711 131.549 225.955C130.793 225.199 130.368 224.173 130.368 223.104V227.136" fill="black"/>
<path d="M162.624 227.136V223.104C162.624 224.173 162.199 225.199 161.443 225.955C160.687 226.711 159.661 227.136 158.592 227.136" fill="black"/>
<path d="M173.376 216.384H162.624L162.624 227.136H173.376V216.384Z" fill="black"/>
<path d="M184.128 216.384H173.376V227.136H184.128V216.384Z" fill="black"/>
<path d="M188.16 227.136C187.091 227.136 186.065 226.711 185.309 225.955C184.553 225.199 184.128 224.173 184.128 223.104V227.136" fill="black"/>
<path d="M205.632 227.136V223.104C205.632 224.173 205.207 225.199 204.451 225.955C203.695 226.711 202.669 227.136 201.6 227.136" fill="black"/>
<path d="M216.384 216.384H205.632V227.136H216.384V216.384Z" fill="black"/>
<path d="M216.384 216.384L216.384 220.416C216.384 219.347 216.809 218.321 217.565 217.565C218.321 216.809 219.347 216.384 220.416 216.384" fill="black"/>
<path d="M244.608 216.384C245.677 216.384 246.703 216.809 247.459 217.565C248.215 218.321 248.64 219.347 248.64 220.416V216.384" fill="black"/>
<path d="M259.392 216.384H248.64V227.136H259.392V216.384Z" fill="black"/>
<path d="M263.424 227.136C262.355 227.136 261.329 226.711 260.573 225.955C259.817 225.199 259.392 224.173 259.392 223.104L259.392 227.136" fill="black"/>
<path d="M123.648 237.888H130.368V227.136H119.616V233.856C119.616 234.925 120.041 235.951 120.797 236.707C121.553 237.463 122.579 237.888 123.648 237.888Z" fill="black"/>
<path d="M141.12 233.856V231.168C141.12 230.099 140.695 229.073 139.939 228.317C139.183 227.561 138.157 227.136 137.088 227.136H130.368V237.888H137.088C138.157 237.888 139.183 237.463 139.939 236.707C140.695 235.951 141.12 234.925 141.12 233.856Z" fill="black"/>
<path d="M151.872 231.168V233.856C151.872 234.925 152.297 235.951 153.053 236.707C153.809 237.463 154.835 237.888 155.904 237.888H162.624L162.624 227.136H155.904C154.835 227.136 153.809 227.561 153.053 228.317C152.297 229.073 151.872 230.099 151.872 231.168Z" fill="black"/>
<path d="M173.376 227.136H162.624L162.624 237.888H173.376V227.136Z" fill="black"/>
<path d="M184.128 227.136H173.376V237.888H184.128V227.136Z" fill="black"/>
<path d="M194.88 227.136H184.128V237.888H194.88V227.136Z" fill="black"/>
<path d="M205.632 227.136H194.88V237.888H205.632V227.136Z" fill="black"/>
<path d="M216.384 227.136H205.632V237.888H216.384V227.136Z" fill="black"/>
<path d="M233.856 227.136H231.168C228.941 227.136 227.136 228.941 227.136 231.168V233.856C227.136 236.083 228.941 237.888 231.168 237.888H233.856C236.083 237.888 237.888 236.083 237.888 233.856V231.168C237.888 228.941 236.083 227.136 233.856 227.136Z" fill="black"/>
<path d="M259.392 227.136H248.64V237.888H259.392V227.136Z" fill="black"/>
<path d="M259.392 227.136H266.112C267.181 227.136 268.207 227.561 268.963 228.317C269.719 229.073 270.144 230.099 270.144 231.168V237.888H259.392V227.136Z" fill="black"/>
<path d="M280.896 237.888V233.856C280.896 234.925 280.471 235.951 279.715 236.707C278.959 237.463 277.933 237.888 276.864 237.888" fill="black"/>
<path d="M274.176 237.888C273.107 237.888 272.081 237.463 271.325 236.707C270.569 235.951 270.144 234.925 270.144 233.856L270.144 237.888" fill="black"/>
<path d="M291.648 227.136H284.928C283.859 227.136 282.833 227.561 282.077 228.317C281.321 229.073 280.896 230.099 280.896 231.168L280.896 237.888L291.648 237.888V227.136Z" fill="black"/>
<path d="M291.648 227.136H298.368C299.437 227.136 300.463 227.561 301.219 228.317C301.975 229.073 302.4 230.099 302.4 231.168V237.888H291.648V227.136Z" fill="black"/>
<path d="M147.84 237.888H145.152C144.083 237.888 143.057 238.313 142.301 239.069C141.545 239.825 141.12 240.851 141.12 241.92V248.64H151.872V241.92C151.872 240.851 151.447 239.825 150.691 239.069C149.935 238.313 148.909 237.888 147.84 237.888Z" fill="black"/>
<path d="M158.592 237.888C159.661 237.888 160.687 238.313 161.443 239.069C162.199 239.825 162.624 240.851 162.624 241.92L162.624 237.888" fill="black"/>
<path d="M173.376 237.888H162.624V248.64H173.376V237.888Z" fill="black"/>
<path d="M173.376 237.888L173.376 241.92C173.376 240.851 173.801 239.825 174.557 239.069C175.313 238.313 176.339 237.888 177.408 237.888" fill="black"/>
<path d="M180.096 237.888C181.165 237.888 182.191 238.313 182.947 239.069C183.703 239.825 184.128 240.851 184.128 241.92V237.888" fill="black"/>
<path d="M194.88 237.888H184.128V248.64H194.88V237.888Z" fill="black"/>
<path d="M194.88 237.888V241.92C194.88 240.851 195.305 239.825 196.061 239.069C196.817 238.313 197.843 237.888 198.912 237.888" fill="black"/>
<path d="M201.6 237.888C202.669 237.888 203.695 238.313 204.451 239.069C205.207 239.825 205.632 240.851 205.632 241.92V237.888" fill="black"/>
<path d="M205.632 248.64V244.608C205.632 245.677 205.207 246.703 204.451 247.459C203.695 248.215 202.669 248.64 201.6 248.64" fill="black"/>
<path d="M198.912 248.64C197.843 248.64 196.817 248.215 196.061 247.459C195.305 246.703 194.88 245.677 194.88 244.608V248.64" fill="black"/>
<path d="M216.384 237.888H205.632V248.64H216.384V237.888Z" fill="black"/>
<path d="M220.416 248.64C219.347 248.64 218.321 248.215 217.565 247.459C216.809 246.703 216.384 245.677 216.384 244.608L216.384 248.64" fill="black"/>
<path d="M248.64 248.64V244.608C248.64 245.677 248.215 246.703 247.459 247.459C246.703 248.215 245.677 248.64 244.608 248.64" fill="black"/>
<path d="M259.392 237.888H248.64V248.64H259.392V237.888Z" fill="black"/>
<path d="M270.144 237.888H259.392V248.64H270.144V237.888Z" fill="black"/>
<path d="M280.896 237.888L270.144 237.888V248.64H280.896V237.888Z" fill="black"/>
<path d="M291.648 237.888L280.896 237.888V248.64H291.648V237.888Z" fill="black"/>
<path d="M298.368 248.64H291.648V237.888H302.4V244.608C302.4 245.677 301.975 246.703 301.219 247.459C300.463 248.215 299.437 248.64 298.368 248.64Z" fill="black"/>
<path d="M151.872 248.64H141.12V259.392H151.872V248.64Z" fill="black"/>
<path d="M155.904 259.392C154.835 259.392 153.809 258.967 153.053 258.211C152.297 257.455 151.872 256.429 151.872 255.36V259.392" fill="black"/>
<path d="M162.624 255.36C162.624 256.429 163.049 257.455 163.805 258.211C164.561 258.967 165.587 259.392 166.656 259.392H169.344C170.413 259.392 171.439 258.967 172.195 258.211C172.951 257.455 173.376 256.429 173.376 255.36V248.64H162.624V255.36Z" fill="black"/>
<path d="M188.16 259.392H194.88V248.64H184.128V255.36C184.128 256.429 184.553 257.455 185.309 258.211C186.065 258.967 187.091 259.392 188.16 259.392Z" fill="black"/>
<path d="M205.632 248.64H194.88V259.392H205.632V248.64Z" fill="black"/>
<path d="M216.384 248.64H205.632V259.392H216.384V248.64Z" fill="black"/>
<path d="M227.136 248.64H216.384V259.392H227.136V248.64Z" fill="black"/>
<path d="M237.888 248.64H227.136V259.392H237.888V248.64Z" fill="black"/>
<path d="M248.64 248.64H237.888V259.392H248.64V248.64Z" fill="black"/>
<path d="M259.392 248.64H248.64V259.392H259.392V248.64Z" fill="black"/>
<path d="M259.392 248.64V252.672C259.392 251.603 259.817 250.577 260.573 249.821C261.329 249.065 262.355 248.64 263.424 248.64" fill="black"/>
<path d="M266.112 248.64C267.181 248.64 268.207 249.065 268.963 249.821C269.719 250.577 270.144 251.603 270.144 252.672L270.144 248.64" fill="black"/>
<path d="M274.176 259.392H280.896V248.64H270.144L270.144 255.36C270.144 256.429 270.569 257.455 271.325 258.211C272.081 258.967 273.107 259.392 274.176 259.392Z" fill="black"/>
<path d="M287.616 259.392H280.896V248.64H291.648V255.36C291.648 256.429 291.223 257.455 290.467 258.211C289.711 258.967 288.685 259.392 287.616 259.392Z" fill="black"/>
<path d="M291.648 248.64L291.648 252.672C291.648 251.603 292.073 250.577 292.829 249.821C293.585 249.065 294.611 248.64 295.68 248.64" fill="black"/>
<path d="M126.336 259.392H123.648C121.421 259.392 119.616 261.197 119.616 263.424V266.112C119.616 268.339 121.421 270.144 123.648 270.144H126.336C128.563 270.144 130.368 268.339 130.368 266.112V263.424C130.368 261.197 128.563 259.392 126.336 259.392Z" fill="black"/>
<path d="M145.152 270.144H151.872V259.392H141.12V266.112C141.12 267.181 141.545 268.207 142.301 268.963C143.057 269.719 144.083 270.144 145.152 270.144Z" fill="black"/>
<path d="M162.624 266.112V263.424C162.624 262.355 162.199 261.329 161.443 260.573C160.687 259.817 159.661 259.392 158.592 259.392H151.872V270.144H158.592C159.661 270.144 160.687 269.719 161.443 268.963C162.199 268.207 162.624 267.181 162.624 266.112Z" fill="black"/>
<path d="M180.096 259.392H177.408C175.181 259.392 173.376 261.197 173.376 263.424V266.112C173.376 268.339 175.181 270.144 177.408 270.144H180.096C182.323 270.144 184.128 268.339 184.128 266.112V263.424C184.128 261.197 182.323 259.392 180.096 259.392Z" fill="black"/>
<path d="M190.848 259.392C191.917 259.392 192.943 259.817 193.699 260.573C194.455 261.329 194.88 262.355 194.88 263.424V259.392" fill="black"/>
<path d="M205.632 259.392H194.88V270.144H205.632V259.392Z" fill="black"/>
<path d="M216.384 259.392H205.632V270.144H216.384V259.392Z" fill="black"/>
<path d="M223.104 270.144H216.384V259.392H227.136V266.112C227.136 267.181 226.711 268.207 225.955 268.963C225.199 269.719 224.173 270.144 223.104 270.144Z" fill="black"/>
<path d="M227.136 259.392V263.424C227.136 262.355 227.561 261.329 228.317 260.573C229.073 259.817 230.099 259.392 231.168 259.392" fill="black"/>
<path d="M233.856 259.392C234.925 259.392 235.951 259.817 236.707 260.573C237.463 261.329 237.888 262.355 237.888 263.424L237.888 259.392" fill="black"/>
<path d="M248.64 259.392H237.888L237.888 270.144H248.64V259.392Z" fill="black"/>
<path d="M255.36 270.144H248.64V259.392H259.392V266.112C259.392 267.181 258.967 268.207 258.211 268.963C257.455 269.719 256.429 270.144 255.36 270.144Z" fill="black"/>
<path d="M169.344 270.144H166.656C164.429 270.144 162.624 271.949 162.624 274.176V276.864C162.624 279.091 164.429 280.896 166.656 280.896H169.344C171.571 280.896 173.376 279.091 173.376 276.864V274.176C173.376 271.949 171.571 270.144 169.344 270.144Z" fill="black"/>
<path d="M194.88 276.864C194.88 277.933 195.305 278.959 196.061 279.715C196.817 280.471 197.843 280.896 198.912 280.896H201.6C202.669 280.896 203.695 280.471 204.451 279.715C205.207 278.959 205.632 277.933 205.632 276.864V270.144H194.88V276.864Z" fill="black"/>
<path d="M205.632 270.144V274.176C205.632 273.107 206.057 272.081 206.813 271.325C207.569 270.569 208.595 270.144 209.664 270.144" fill="black"/>
<path d="M237.888 276.864C237.888 277.933 238.313 278.959 239.069 279.715C239.825 280.471 240.851 280.896 241.92 280.896H244.608C245.677 280.896 246.703 280.471 247.459 279.715C248.215 278.959 248.64 277.933 248.64 276.864V270.144H237.888V276.864Z" fill="black"/>
<path d="M248.64 270.144V274.176C248.64 273.107 249.065 272.081 249.821 271.325C250.577 270.569 251.603 270.144 252.672 270.144" fill="black"/>
<path d="M270.144 270.144H263.424C262.355 270.144 261.329 270.569 260.573 271.325C259.817 272.081 259.392 273.107 259.392 274.176V280.896H270.144V270.144Z" fill="black"/>
<path d="M280.896 276.864V274.176C280.896 273.107 280.471 272.081 279.715 271.325C278.959 270.569 277.933 270.144 276.864 270.144H270.144V280.896H276.864C277.933 280.896 278.959 280.471 279.715 279.715C280.471 278.959 280.896 277.933 280.896 276.864Z" fill="black"/>
<path d="M291.648 280.896V276.864C291.648 277.933 291.223 278.959 290.467 279.715C289.711 280.471 288.685 280.896 287.616 280.896" fill="black"/>
<path d="M298.368 270.144H295.68C294.611 270.144 293.585 270.569 292.829 271.325C292.073 272.081 291.648 273.107 291.648 274.176V280.896H302.4V274.176C302.4 273.107 301.975 272.081 301.219 271.325C300.463 270.569 299.437 270.144 298.368 270.144Z" fill="black"/>
<path d="M130.368 280.896H123.648C122.579 280.896 121.553 281.321 120.797 282.077C120.041 282.833 119.616 283.859 119.616 284.928V291.648H130.368V280.896Z" fill="black"/>
<path d="M141.12 280.896H130.368V291.648H141.12V280.896Z" fill="black"/>
<path d="M141.12 280.896H147.84C148.909 280.896 149.935 281.321 150.691 282.077C151.447 282.833 151.872 283.859 151.872 284.928V291.648H141.12V280.896Z" fill="black"/>
<path d="M180.096 280.896H177.408C176.339 280.896 175.313 281.321 174.557 282.077C173.801 282.833 173.376 283.859 173.376 284.928V291.648H184.128V284.928C184.128 283.859 183.703 282.833 182.947 282.077C182.191 281.321 181.165 280.896 180.096 280.896Z" fill="black"/>
<path d="M216.384 280.896H209.664C208.595 280.896 207.569 281.321 206.813 282.077C206.057 282.833 205.632 283.859 205.632 284.928V291.648H216.384V280.896Z" fill="black"/>
<path d="M227.136 287.616V284.928C227.136 283.859 226.711 282.833 225.955 282.077C225.199 281.321 224.173 280.896 223.104 280.896H216.384V291.648H223.104C224.173 291.648 225.199 291.223 225.955 290.467C226.711 289.711 227.136 288.685 227.136 287.616Z" fill="black"/>
<path d="M259.392 291.648V287.616C259.392 288.685 258.967 289.711 258.211 290.467C257.455 291.223 256.429 291.648 255.36 291.648" fill="black"/>
<path d="M270.144 280.896H259.392V291.648L270.144 291.648V280.896Z" fill="black"/>
<path d="M270.144 280.896L270.144 284.928C270.144 283.859 270.569 282.833 271.325 282.077C272.081 281.321 273.107 280.896 274.176 280.896" fill="black"/>
<path d="M291.648 280.896L284.928 280.896C283.859 280.896 282.833 281.321 282.077 282.077C281.321 282.833 280.896 283.859 280.896 284.928V291.648H291.648L291.648 280.896Z" fill="black"/>
<path d="M302.4 280.896H291.648L291.648 291.648H302.4V280.896Z" fill="black"/>
<path d="M123.648 302.4H130.368V291.648H119.616V298.368C119.616 299.437 120.041 300.463 120.797 301.219C121.553 301.975 122.579 302.4 123.648 302.4Z" fill="black"/>
<path d="M141.12 291.648H130.368V302.4H141.12V291.648Z" fill="black"/>
<path d="M147.84 302.4H141.12V291.648H151.872V298.368C151.872 299.437 151.447 300.463 150.691 301.219C149.935 301.975 148.909 302.4 147.84 302.4Z" fill="black"/>
<path d="M173.376 298.368C173.376 299.437 173.801 300.463 174.557 301.219C175.313 301.975 176.339 302.4 177.408 302.4H180.096C181.165 302.4 182.191 301.975 182.947 301.219C183.703 300.463 184.128 299.437 184.128 298.368V291.648H173.376V298.368Z" fill="black"/>
<path d="M205.632 298.368C205.632 299.437 206.057 300.463 206.813 301.219C207.569 301.975 208.595 302.4 209.664 302.4H212.352C213.421 302.4 214.447 301.975 215.203 301.219C215.959 300.463 216.384 299.437 216.384 298.368V291.648H205.632V298.368Z" fill="black"/>
<path d="M216.384 291.648L216.384 295.68C216.384 294.611 216.809 293.585 217.565 292.829C218.321 292.073 219.347 291.648 220.416 291.648" fill="black"/>
<path d="M248.64 295.68V298.368C248.64 299.437 249.065 300.463 249.821 301.219C250.577 301.975 251.603 302.4 252.672 302.4H259.392V291.648H252.672C251.603 291.648 250.577 292.073 249.821 292.829C249.065 293.585 248.64 294.611 248.64 295.68Z" fill="black"/>
<path d="M266.112 302.4H259.392V291.648L270.144 291.648V298.368C270.144 299.437 269.719 300.463 268.963 301.219C268.207 301.975 267.181 302.4 266.112 302.4Z" fill="black"/>
<path d="M284.928 302.4H291.648V291.648H280.896V298.368C280.896 299.437 281.321 300.463 282.077 301.219C282.833 301.975 283.859 302.4 284.928 302.4Z" fill="black"/>
<path d="M298.368 302.4H291.648V291.648H302.4V298.368C302.4 299.437 301.975 300.463 301.219 301.219C300.463 301.975 299.437 302.4 298.368 302.4Z" fill="black"/>
<path d="M35.8794 33.5892C34.6214 33.5892 33.5892 34.6214 33.5892 35.8794V106.585C33.5892 107.843 34.6107 108.875 35.8794 108.875H106.585C107.843 108.875 108.875 107.853 108.875 106.585V35.8794C108.875 34.6214 107.853 33.5892 106.585 33.5892H35.8794ZM98.112 96.8003C98.112 97.5314 97.5206 98.112 96.8003 98.112H45.6637C44.9326 98.112 44.352 97.5206 44.352 96.8003V45.6637C44.352 44.9326 44.9434 44.352 45.6637 44.352H96.8003C97.5314 44.352 98.112 44.9434 98.112 45.6637V96.8003Z" fill="black"/>
<path d="M87.36 57.3834C87.36 56.1254 86.3386 55.0933 85.0698 55.0933H57.3834C56.1254 55.0933 55.0933 56.1147 55.0933 57.3834V85.0806C55.0933 86.3386 56.1147 87.3708 57.3834 87.3708H85.0698C86.3278 87.3708 87.36 86.3493 87.36 85.0806V57.3834Z" fill="black"/>
<path d="M229.415 33.5892C228.157 33.5892 227.125 34.6214 227.125 35.8794V106.585C227.125 107.843 228.147 108.875 229.415 108.875H300.121C301.379 108.875 302.411 107.853 302.411 106.585V35.8794C302.411 34.6214 301.389 33.5892 300.121 33.5892H229.415ZM291.648 96.8003C291.648 97.5314 291.057 98.112 290.336 98.112H239.2C238.469 98.112 237.888 97.5206 237.888 96.8003V45.6637C237.888 44.9326 238.479 44.352 239.2 44.352H290.336C291.067 44.352 291.648 44.9434 291.648 45.6637V96.8003Z" fill="black"/>
<path d="M280.896 57.3834C280.896 56.1254 279.875 55.0933 278.606 55.0933H250.919C249.661 55.0933 248.629 56.1147 248.629 57.3834V85.0806C248.629 86.3386 249.651 87.3708 250.919 87.3708H278.606C279.864 87.3708 280.896 86.3493 280.896 85.0806V57.3834Z" fill="black"/>
<path d="M35.8794 227.125C34.6214 227.125 33.5892 228.157 33.5892 229.415V300.121C33.5892 301.379 34.6107 302.411 35.8794 302.411H106.585C107.843 302.411 108.875 301.389 108.875 300.121V229.415C108.875 228.157 107.853 227.125 106.585 227.125H35.8794ZM98.112 290.336C98.112 291.067 97.5206 291.648 96.8003 291.648H45.6637C44.9326 291.648 44.352 291.057 44.352 290.336V239.2C44.352 238.469 44.9434 237.888 45.6637 237.888H96.8003C97.5314 237.888 98.112 238.479 98.112 239.2V290.336Z" fill="black"/>
<path d="M87.36 250.919C87.36 249.661 86.3386 248.629 85.0698 248.629H57.3834C56.1254 248.629 55.0933 249.651 55.0933 250.919V278.617C55.0933 279.875 56.1147 280.907 57.3834 280.907H85.0698C86.3278 280.907 87.36 279.885 87.36 278.617V250.919Z" fill="black"/>
</svg>
